
<svg width="320" height="109" viewBox="0 0 320 109" fill="none" xmlns="http://www.w3.org/2000/svg">
<path d="M135.632 34.9672L119.738 7.41748H45.5656L9.53906 73.1129L24.3735 100.663H97.4861L135.632 34.9672Z" fill="white"/>
<path d="M10.2656 73.1609L10.548 72.6254L46.6461 8.96289H119.219L134.217 35.1692L97.7429 99.1184H24.9123L10.2656 73.1609ZM47.9411 11.1329L12.7616 73.1609L26.1829 96.9559H96.5419L131.652 35.1692L117.946 11.1254L47.9411 11.1329Z" fill="white"/>
<path d="M83.0756 72.0898H11.5156V74.2825H83.0756V72.0898Z" fill="black"/>
<path d="M116.557 9.49597L80.7891 73.2495L82.698 74.324L118.466 10.5704L116.557 9.49597Z" fill="black"/>
<path d="M82.7723 71.9827L80.8633 73.0571L95.1709 98.5592L97.0799 97.4848L82.7723 71.9827Z" fill="black"/>
<path d="M132.905 35.1543L97.1097 98.0288H25.5498L11.4208 73.1422L47.2836 9.983H118.584L132.905 35.1543ZM138.791 35.1543L137.375 32.6581L123.058 7.5132L121.599 4.90576H44.2925L42.8092 7.5132L7.06497 70.6893L5.67578 73.1572L7.06497 75.644L21.194 100.561L22.6547 103.146H100.359L101.819 100.561L137.611 37.6939L139.024 35.2014L138.791 35.1543Z" fill="white"/>
<path d="M165.062 5.18848H177.284L172.832 33.9381L186.507 5.18848H198.728L174.714 49.1963H161.246L165.062 5.18848Z" fill="white"/>
<path d="M181.273 49.1963L204.82 5.18848H219.297L215.276 49.1963H202.891L203.973 42.7107H196.72L193.754 49.1963H181.273ZM200.794 33.8194H205.714L208.349 17.5224L200.794 33.8194Z" fill="white"/>
<path d="M215.664 49.1963L229.627 5.18848H241.942L231.463 38.2066H240.459L237.029 49.1171L215.664 49.1963Z" fill="white"/>
<path d="M242.131 33.4627L251.031 5.16357H263.369L253.958 34.6203C253.92 34.8466 253.857 35.068 253.769 35.2801C253.763 35.5149 253.716 35.7466 253.628 35.9645C253.552 36.2685 253.546 36.586 253.611 36.8925C253.677 37.1991 253.811 37.4866 254.005 37.733C254.211 37.9612 254.467 38.1392 254.753 38.2535C255.039 38.3679 255.347 38.4155 255.654 38.3928C256.53 38.3907 257.372 38.0535 258.008 37.4502C258.759 36.6521 259.301 35.6806 259.586 34.6221L268.998 5.16546H281.265L272.318 33.4627L272.153 33.9114C271.113 38.0176 269.165 41.8376 266.455 45.0896C264.778 46.7861 262.742 48.0837 260.497 48.8867C257.972 49.7769 255.309 50.2085 252.632 50.1612C247.927 50.1612 244.768 49.194 242.844 47.2596C241.829 46.0443 241.123 44.6005 240.786 43.052C240.45 41.5035 240.493 39.8963 240.913 38.3683C240.974 37.6551 241.116 36.9511 241.336 36.2699C241.519 35.5177 241.796 34.5505 242.131 33.4627Z" fill="white"/>
<path d="M271.777 49.1963L285.906 5.18848H307.665L304.297 15.8482H294.885L292.978 21.4609H301.549L298.319 31.7719H289.748L287.7 37.739H297.112L293.509 49.1077L271.777 49.1963Z" fill="white"/>
<path d="M304.389 48.7091H301.234L303.896 40.3608H302.036L302.93 37.5063H309.782L308.888 40.3608H307.098L304.389 48.7091Z" fill="white"/>
<path d="M311.995 40.4082L309.098 48.7037H306.414L310.77 37.501H314.42L313.526 43.421L316.349 37.501H319.999L317.268 48.7037H314.559L316.914 40.4082L312.961 48.7037H310.841L311.995 40.4082Z" fill="white"/>
<path d="M123.289 103.196L146.725 59.188H161.2L157.386 103.196H145L146.083 96.7102H138.83L135.863 103.196H123.289ZM142.809 87.8189H147.73L150.461 71.5219L142.809 87.8189Z" fill="white"/>
<path d="M173.194 103.196H160.855L171.208 70.3417H163.916L167.444 59.188H194.386L190.855 70.3436H183.579L173.194 103.196Z" fill="white"/>
<path d="M209.941 59.188H222.161L217.664 87.9377L231.345 59.188H243.565L219.571 103.196H206.078L209.941 59.188Z" fill="white"/>
<path d="M244.866 104.072C243.042 104.204 241.215 103.859 239.564 103.069C237.914 102.279 236.498 101.072 235.455 99.5674C233.286 95.9571 232.603 91.6444 233.548 87.5389C234.216 83.481 235.379 79.5205 237.01 75.746C238.468 72.2379 240.435 68.9638 242.845 66.0289C244.786 63.6694 247.191 61.7346 249.909 60.3446C252.47 59.0999 255.282 58.4625 258.128 58.4819C259.947 58.3485 261.77 58.6888 263.419 59.4698C265.069 60.2508 266.488 61.4458 267.54 62.9389C269.668 66.5903 270.317 70.9207 269.352 75.0371C268.708 79.0977 267.553 83.0602 265.915 86.83C264.446 90.3401 262.481 93.6203 260.08 96.5697C258.137 98.92 255.732 100.845 253.015 102.226C250.475 103.454 247.688 104.086 244.866 104.072ZM245.855 88.5287C245.538 89.7017 245.538 90.9379 245.855 92.1109C246.014 92.4815 246.287 92.7914 246.634 92.995C246.982 93.1986 247.386 93.2852 247.786 93.2421C248.671 93.2135 249.512 92.8512 250.141 92.2277C251.068 91.2755 251.817 90.1652 252.355 88.9491C253.45 86.6666 254.364 84.3006 255.086 81.8734C255.888 79.2861 256.51 76.6458 256.946 73.9719C257.231 72.7783 257.231 71.5343 256.946 70.3407C256.814 69.9792 256.567 69.6707 256.244 69.4621C255.921 69.2535 255.539 69.1562 255.156 69.185C254.209 69.1823 253.298 69.5456 252.612 70.1993C251.684 71.1273 250.941 72.224 250.423 73.4308C249.324 75.7739 248.396 78.1934 247.645 80.6706C246.859 83.2428 246.261 85.8692 245.857 88.5287H245.855Z" fill="white"/>
<path d="M263.422 103.196L277.338 59.188H289.63L275.689 103.196H263.422Z" fill="white"/>
<path d="M280.703 103.196L294.651 59.188H304.063C309.935 59.188 314.04 60.5561 316.378 63.2924C318.733 66.028 319.438 70.2493 318.544 75.9808C317.825 80.431 316.444 84.7481 314.446 88.788C312.807 92.3405 310.496 95.5417 307.642 98.2147C305.702 99.9353 303.424 101.229 300.954 102.012C297.391 102.901 293.72 103.282 290.051 103.143L280.703 103.196ZM296.504 92.3475H297.163C297.906 92.3328 298.637 92.1559 299.305 91.829C300.006 91.4757 300.637 90.9957 301.164 90.4131C302.48 88.6238 303.497 86.6329 304.176 84.5176C305.271 81.6613 306.061 78.6966 306.531 75.6735C306.884 74.2753 306.802 72.8023 306.296 71.4522C306.014 70.9828 305.613 70.5975 305.132 70.3363C304.652 70.075 304.111 69.9473 303.564 69.9665L296.504 92.3475Z" fill="white"/>
</svg>
