
<svg width="145" height="109" viewBox="0 0 145 109" fill="none" xmlns="http://www.w3.org/2000/svg">
<path d="M135.632 34.9672L119.738 7.41748H45.5656L9.53906 73.1129L24.3735 100.663H97.4861L135.632 34.9672Z" fill="white"/>
<path d="M10.2656 73.1609L10.548 72.6254L46.6461 8.96289H119.219L134.217 35.1692L97.7429 99.1184H24.9123L10.2656 73.1609ZM47.9411 11.1329L12.7616 73.1609L26.1829 96.9559H96.5419L131.652 35.1692L117.946 11.1254L47.9411 11.1329Z" fill="white"/>
<path d="M83.0756 72.0898H11.5156V74.2825H83.0756V72.0898Z" fill="black"/>
<path d="M116.557 9.49597L80.7891 73.2495L82.698 74.324L118.466 10.5704L116.557 9.49597Z" fill="black"/>
<path d="M82.7723 71.9827L80.8633 73.0571L95.1709 98.5592L97.0799 97.4848L82.7723 71.9827Z" fill="black"/>
<path d="M132.905 35.1543L97.1097 98.0288H25.5498L11.4208 73.1422L47.2836 9.983H118.584L132.905 35.1543ZM138.791 35.1543L137.375 32.6581L123.058 7.5132L121.599 4.90576H44.2925L42.8092 7.5132L7.06497 70.6893L5.67578 73.1572L7.06497 75.644L21.194 100.561L22.6547 103.146H100.359L101.819 100.561L137.611 37.6939L139.024 35.2014L138.791 35.1543Z" fill="white"/>
</svg>
