
<svg width="498" height="241" viewBox="0 0 498 241" fill="none" xmlns="http://www.w3.org/2000/svg">
<g clip-path="url(#clip0_3390_7606)">
<rect y="0.5" width="498" height="240" rx="12" fill="url(#paint0_radial_3390_7606)"/>
<g opacity="0.85" filter="url(#filter0_dddd_3390_7606)">
<mask id="path-2-inside-1_3390_7606" fill="white">
<path d="M268.75 95.0293L477.53 131.843L433.249 382.969L224.47 346.155L268.75 95.0293Z"/>
</mask>
<path d="M268.75 95.0293L477.53 131.843L433.249 382.969L224.47 346.155L268.75 95.0293Z" fill="white"/>
<path d="M228.409 346.85L272.69 95.7239L264.811 94.3347L220.531 345.461L228.409 346.85Z" fill="#E1ECFF" mask="url(#path-2-inside-1_3390_7606)"/>
<path d="M293.802 123.013C293.014 122.874 292.329 122.639 291.749 122.309C291.169 121.969 290.704 121.535 290.353 121.007C290.002 120.48 289.769 119.87 289.652 119.178C289.549 118.477 289.573 117.696 289.724 116.835C289.878 115.963 290.13 115.211 290.48 114.58C290.831 113.938 291.264 113.418 291.778 113.021C292.294 112.614 292.872 112.342 293.514 112.206C294.157 112.06 294.846 112.051 295.582 112.181C296.159 112.283 296.677 112.45 297.134 112.682C297.591 112.915 297.967 113.208 298.262 113.564C298.569 113.91 298.787 114.306 298.914 114.751C299.041 115.196 299.06 115.676 298.969 116.19L297.023 116.351C297.119 115.87 297.09 115.453 296.935 115.101C296.791 114.75 296.565 114.467 296.257 114.25C295.959 114.035 295.615 113.893 295.227 113.825C294.891 113.765 294.542 113.774 294.182 113.852C293.832 113.931 293.499 114.099 293.183 114.358C292.869 114.606 292.591 114.952 292.35 115.397C292.12 115.844 291.944 116.408 291.824 117.091C291.668 117.974 291.667 118.715 291.821 119.317C291.977 119.907 292.258 120.374 292.663 120.716C293.081 121.05 293.579 121.267 294.156 121.369C294.745 121.473 295.232 121.44 295.62 121.27C296.009 121.089 296.317 120.819 296.543 120.458C296.771 120.086 296.931 119.671 297.023 119.21L298.738 119.805C298.629 120.36 298.453 120.865 298.21 121.321C297.98 121.767 297.664 122.145 297.263 122.453C296.864 122.751 296.379 122.953 295.808 123.058C295.237 123.163 294.568 123.148 293.802 123.013ZM301.629 124.393C301.167 124.311 300.772 124.155 300.445 123.924C300.119 123.682 299.882 123.37 299.733 122.986C299.594 122.604 299.57 122.156 299.661 121.641C299.737 121.211 299.881 120.857 300.092 120.58C300.314 120.305 300.604 120.102 300.963 119.97C301.324 119.828 301.757 119.736 302.263 119.695C302.78 119.646 303.368 119.63 304.026 119.649C304.392 119.659 304.69 119.658 304.92 119.644C305.16 119.632 305.342 119.583 305.466 119.497C305.602 119.402 305.689 119.244 305.728 119.023C305.785 118.697 305.719 118.399 305.529 118.127C305.338 117.855 304.991 117.675 304.487 117.586C304.193 117.534 303.895 117.535 303.592 117.59C303.301 117.647 303.036 117.768 302.797 117.954C302.559 118.139 302.365 118.408 302.216 118.761L300.549 117.899C300.726 117.507 300.953 117.174 301.229 116.897C301.505 116.621 301.825 116.401 302.19 116.238C302.554 116.075 302.956 115.978 303.395 115.947C303.844 115.918 304.315 115.947 304.809 116.034C305.576 116.169 306.184 116.406 306.633 116.746C307.083 117.085 307.382 117.538 307.531 118.106C307.682 118.663 307.686 119.347 307.543 120.155L307.271 121.7C307.208 122.057 307.147 122.431 307.089 122.821C307.044 123.203 306.997 123.59 306.949 123.982C306.914 124.366 306.886 124.74 306.865 125.105L305.085 124.791C305.095 124.489 305.113 124.168 305.141 123.826C305.169 123.484 305.209 123.134 305.261 122.775L305.009 122.731C304.792 123.104 304.517 123.434 304.185 123.722C303.852 124.01 303.469 124.219 303.034 124.348C302.612 124.469 302.144 124.484 301.629 124.393ZM302.66 123.064C302.87 123.101 303.092 123.102 303.325 123.067C303.559 123.033 303.788 122.959 304.014 122.847C304.25 122.737 304.477 122.588 304.694 122.399C304.912 122.21 305.11 121.974 305.29 121.692L305.516 120.318L305.883 120.448C305.679 120.563 305.438 120.64 305.16 120.678C304.883 120.715 304.593 120.729 304.292 120.719C304.001 120.711 303.703 120.713 303.397 120.724C303.104 120.727 302.834 120.755 302.586 120.809C302.34 120.852 302.134 120.946 301.968 121.09C301.804 121.223 301.697 121.432 301.647 121.715C301.584 122.072 301.645 122.37 301.83 122.609C302.026 122.849 302.303 123.001 302.66 123.064ZM308.806 125.447L309.69 120.436L310.26 117.206L311.93 117.501L311.417 120.042L311.7 120.092C311.957 119.498 312.242 119.018 312.556 118.651C312.88 118.286 313.249 118.037 313.662 117.904C314.086 117.773 314.561 117.753 315.086 117.846C316.021 118.011 316.671 118.467 317.038 119.214C317.415 119.963 317.481 121.03 317.237 122.417L316.464 126.797L314.463 126.445L315.199 122.269C315.357 121.376 315.335 120.701 315.134 120.243C314.946 119.776 314.594 119.498 314.079 119.407C313.628 119.327 313.225 119.403 312.87 119.632C312.517 119.852 312.216 120.178 311.966 120.61C311.727 121.045 311.553 121.539 311.445 122.094L310.792 125.797L308.806 125.447ZM321.488 127.895C320.795 127.772 320.223 127.487 319.771 127.039C319.33 126.593 319.029 126.026 318.869 125.337C318.71 124.637 318.709 123.846 318.865 122.964C319.011 122.134 319.262 121.415 319.619 120.806C319.986 120.199 320.449 119.756 321.007 119.475C321.566 119.194 322.202 119.117 322.916 119.243C323.473 119.341 323.916 119.533 324.245 119.818C324.575 120.093 324.822 120.446 324.984 120.875C325.147 121.304 325.246 121.788 325.281 122.325L325.612 122.383C325.608 122.036 325.609 121.695 325.614 121.36C325.619 121.025 325.626 120.707 325.636 120.405C325.658 120.095 325.69 119.824 325.73 119.593L326.189 116.993L328.206 117.349L326.931 124.484L326.236 128.52L324.534 128.22L324.977 125.894L324.677 125.841C324.466 126.367 324.205 126.798 323.897 127.133C323.599 127.471 323.249 127.707 322.846 127.842C322.445 127.966 321.993 127.983 321.488 127.895ZM322.392 126.364C322.738 126.425 323.057 126.4 323.347 126.289C323.65 126.169 323.908 125.998 324.12 125.775C324.333 125.553 324.507 125.302 324.643 125.023C324.791 124.735 324.889 124.459 324.935 124.197L324.979 123.945C325.016 123.735 325.024 123.508 325.001 123.266C324.99 123.026 324.945 122.785 324.869 122.544C324.804 122.295 324.704 122.066 324.567 121.858C324.433 121.639 324.259 121.457 324.046 121.311C323.846 121.156 323.604 121.054 323.321 121.004C322.911 120.932 322.544 120.986 322.22 121.167C321.895 121.348 321.623 121.631 321.404 122.015C321.187 122.388 321.032 122.837 320.939 123.362C320.845 123.898 320.836 124.378 320.912 124.804C321 125.231 321.165 125.579 321.41 125.85C321.665 126.122 321.993 126.294 322.392 126.364ZM328.426 128.907L329.879 120.666L331.864 121.016L330.411 129.257L328.426 128.907ZM331.096 119.564C330.687 119.492 330.392 119.354 330.211 119.148C330.033 118.933 329.972 118.662 330.029 118.336C330.089 118 330.238 117.767 330.478 117.636C330.728 117.507 331.053 117.477 331.452 117.548C331.862 117.62 332.157 117.758 332.337 117.964C332.528 118.171 332.594 118.442 332.535 118.778C332.477 119.104 332.323 119.337 332.071 119.476C331.831 119.607 331.506 119.637 331.096 119.564ZM335.537 130.372C334.844 130.25 334.271 129.964 333.82 129.517C333.378 129.07 333.078 128.503 332.918 127.814C332.759 127.115 332.758 126.324 332.914 125.441C333.06 124.611 333.311 123.892 333.668 123.283C334.035 122.677 334.497 122.233 335.056 121.952C335.615 121.672 336.251 121.594 336.965 121.72C337.522 121.818 337.965 122.01 338.294 122.296C338.624 122.571 338.871 122.923 339.033 123.352C339.196 123.782 339.295 124.265 339.33 124.802L339.661 124.86C339.657 124.513 339.658 124.172 339.663 123.837C339.668 123.502 339.675 123.184 339.685 122.882C339.707 122.572 339.738 122.301 339.779 122.07L340.238 119.47L342.255 119.826L340.98 126.961L340.285 130.998L338.583 130.698L339.026 128.371L338.726 128.318C338.514 128.844 338.254 129.275 337.946 129.61C337.648 129.948 337.298 130.184 336.895 130.319C336.494 130.443 336.041 130.461 335.537 130.372ZM336.441 128.841C336.787 128.903 337.106 128.877 337.396 128.766C337.699 128.646 337.957 128.475 338.169 128.253C338.382 128.03 338.556 127.779 338.692 127.5C338.84 127.212 338.937 126.937 338.984 126.674L339.028 126.422C339.065 126.212 339.073 125.986 339.05 125.743C339.039 125.503 338.994 125.262 338.918 125.021C338.853 124.772 338.753 124.543 338.616 124.335C338.482 124.116 338.308 123.934 338.095 123.788C337.895 123.633 337.653 123.531 337.37 123.481C336.96 123.409 336.593 123.463 336.269 123.645C335.944 123.826 335.672 124.108 335.453 124.492C335.236 124.865 335.081 125.314 334.988 125.84C334.893 126.375 334.885 126.856 334.961 127.281C335.048 127.708 335.214 128.057 335.459 128.327C335.714 128.6 336.042 128.771 336.441 128.841ZM344.361 131.928C343.899 131.846 343.504 131.69 343.176 131.459C342.851 131.217 342.613 130.905 342.464 130.521C342.326 130.139 342.302 129.691 342.393 129.176C342.469 128.745 342.612 128.392 342.824 128.115C343.045 127.84 343.336 127.636 343.695 127.505C344.056 127.363 344.489 127.271 344.994 127.23C345.512 127.181 346.1 127.165 346.757 127.184C347.123 127.194 347.422 127.192 347.651 127.179C347.892 127.167 348.074 127.118 348.197 127.031C348.333 126.936 348.421 126.778 348.46 126.558C348.517 126.232 348.45 125.933 348.26 125.661C348.07 125.39 347.722 125.209 347.218 125.12C346.924 125.068 346.626 125.07 346.324 125.125C346.032 125.182 345.767 125.303 345.529 125.489C345.29 125.674 345.096 125.943 344.948 126.296L343.28 125.433C343.457 125.042 343.684 124.708 343.96 124.432C344.236 124.156 344.557 123.936 344.921 123.773C345.286 123.61 345.687 123.513 346.126 123.482C346.575 123.453 347.047 123.482 347.541 123.569C348.307 123.704 348.915 123.941 349.365 124.28C349.814 124.619 350.113 125.073 350.262 125.641C350.413 126.198 350.417 126.881 350.274 127.69L350.002 129.234C349.939 129.591 349.879 129.965 349.821 130.356C349.775 130.738 349.728 131.125 349.681 131.517C349.646 131.901 349.618 132.275 349.597 132.64L347.816 132.326C347.826 132.024 347.845 131.702 347.873 131.361C347.9 131.019 347.94 130.669 347.993 130.31L347.741 130.265C347.523 130.638 347.248 130.969 346.916 131.257C346.584 131.545 346.2 131.754 345.766 131.883C345.344 132.003 344.875 132.018 344.361 131.928ZM345.391 130.598C345.601 130.635 345.823 130.637 346.057 130.602C346.29 130.567 346.52 130.494 346.745 130.382C346.981 130.272 347.208 130.123 347.426 129.933C347.643 129.744 347.842 129.509 348.021 129.226L348.247 127.853L348.614 127.982C348.41 128.098 348.169 128.175 347.892 128.212C347.614 128.25 347.325 128.264 347.023 128.254C346.732 128.246 346.434 128.248 346.129 128.259C345.836 128.261 345.565 128.29 345.318 128.343C345.072 128.387 344.866 128.48 344.7 128.624C344.535 128.758 344.428 128.966 344.378 129.25C344.315 129.607 344.376 129.905 344.562 130.143C344.758 130.384 345.034 130.535 345.391 130.598ZM354.404 133.682C353.532 133.528 352.927 133.183 352.588 132.647C352.262 132.102 352.185 131.336 352.36 130.349L353.057 126.394L351.859 126.182L352.169 124.612L352.957 124.751C353.261 124.805 353.495 124.797 353.659 124.729C353.825 124.65 353.95 124.493 354.035 124.259L354.416 123.108L355.566 123.311L355.244 125.138L357.419 125.522L357.127 127.176L354.952 126.793L354.28 130.606C354.212 130.995 354.251 131.294 354.398 131.504C354.556 131.716 354.818 131.854 355.186 131.919C355.385 131.954 355.583 131.968 355.78 131.959C355.989 131.942 356.187 131.89 356.376 131.804L356.042 133.695C355.709 133.744 355.403 133.761 355.124 133.744C354.854 133.74 354.614 133.719 354.404 133.682ZM361.268 134.909C360.596 134.79 360.014 134.59 359.522 134.308C359.04 134.029 358.653 133.679 358.358 133.258C358.066 132.828 357.871 132.338 357.772 131.79C357.685 131.244 357.698 130.645 357.813 129.994C357.928 129.343 358.123 128.76 358.398 128.245C358.672 127.73 359.018 127.304 359.436 126.966C359.853 126.628 360.333 126.393 360.876 126.261C361.419 126.13 362.006 126.119 362.636 126.23C363.235 126.336 363.753 126.53 364.19 126.813C364.638 127.098 364.985 127.468 365.229 127.923C365.487 128.369 365.642 128.9 365.696 129.516C365.752 130.121 365.691 130.804 365.514 131.563L359.045 130.471L359.248 129.321L364.535 130.205L363.743 130.731C363.912 130.143 363.951 129.647 363.86 129.241C363.779 128.837 363.603 128.513 363.332 128.27C363.071 128.029 362.752 127.876 362.374 127.809C361.943 127.733 361.545 127.782 361.178 127.956C360.824 128.121 360.52 128.403 360.265 128.802C360.013 129.191 359.833 129.69 359.725 130.299C359.564 131.213 359.643 131.931 359.963 132.453C360.293 132.977 360.815 133.302 361.529 133.428C361.834 133.481 362.104 133.486 362.339 133.441C362.575 133.395 362.777 133.323 362.946 133.223C363.118 133.112 363.26 132.98 363.374 132.827C363.498 132.675 363.597 132.514 363.67 132.343L365.352 133.029C365.189 133.401 364.986 133.728 364.741 134.01C364.498 134.281 364.205 134.501 363.861 134.667C363.528 134.836 363.147 134.942 362.717 134.986C362.287 135.029 361.804 135.003 361.268 134.909ZM369.947 136.228L370.32 134.117L374.721 132.098C374.957 131.988 375.19 131.861 375.422 131.718C375.663 131.577 375.892 131.416 376.107 131.238C376.335 131.051 376.524 130.84 376.674 130.607C376.835 130.364 376.942 130.096 376.994 129.802C377.05 129.487 377.023 129.206 376.915 128.96C376.818 128.715 376.643 128.505 376.392 128.331C376.152 128.159 375.837 128.038 375.449 127.97C375.102 127.909 374.794 127.908 374.523 127.969C374.263 128.031 374.035 128.154 373.841 128.336C373.648 128.508 373.488 128.74 373.361 129.031C373.234 129.323 373.135 129.668 373.064 130.068L371.209 129.351C371.333 128.582 371.592 127.945 371.984 127.44C372.378 126.925 372.896 126.567 373.538 126.366C374.193 126.156 374.94 126.125 375.78 126.274C376.526 126.405 377.156 126.641 377.67 126.981C378.195 127.322 378.575 127.747 378.811 128.254C379.046 128.761 379.105 129.346 378.989 130.007C378.9 130.512 378.729 130.958 378.476 131.347C378.234 131.737 377.947 132.077 377.615 132.365C377.295 132.644 376.949 132.886 376.577 133.091C376.205 133.297 375.85 133.467 375.512 133.602L372.548 134.932L372.526 135.058L378.133 135.965L377.841 137.62L369.947 136.228Z" fill="#E1ECFF"/>
<rect x="278.43" y="132.276" width="48" height="48" transform="rotate(10 278.43 132.276)" fill="#E1ECFF"/>
<rect x="337.518" y="142.695" width="124" height="8" transform="rotate(10 337.518 142.695)" fill="#E1ECFF"/>
<rect x="334.045" y="162.391" width="124" height="8" transform="rotate(10 334.045 162.391)" fill="#E1ECFF"/>
<rect x="330.572" y="182.087" width="124" height="8" transform="rotate(10 330.572 182.087)" fill="#E1ECFF"/>
<rect x="268.011" y="191.364" width="184" height="8" transform="rotate(10 268.011 191.364)" fill="#E1ECFF"/>
<rect x="264.538" y="211.061" width="184" height="8" transform="rotate(10 264.538 211.061)" fill="#E1ECFF"/>
<rect x="261.065" y="230.757" width="184" height="8" transform="rotate(10 261.065 230.757)" fill="#E1ECFF"/>
</g>
<g opacity="0.85" filter="url(#filter1_dddd_3390_7606)">
<mask id="path-12-inside-2_3390_7606" fill="white">
<path d="M20.4702 131.844L229.249 95.0303L273.53 346.156L64.7505 382.97L20.4702 131.844Z"/>
</mask>
<path d="M20.4702 131.844L229.249 95.0303L273.53 346.156L64.7505 382.97L20.4702 131.844Z" fill="white"/>
<path d="M68.6897 382.275L24.4094 131.149L16.531 132.538L60.8113 383.664L68.6897 382.275Z" fill="#E1ECFF" mask="url(#path-12-inside-2_3390_7606)"/>
<path d="M46.103 150.89C45.3151 151.029 44.5919 151.043 43.9332 150.932C43.2727 150.81 42.6873 150.561 42.1769 150.185C41.6666 149.81 41.2385 149.316 40.8925 148.706C40.5552 148.083 40.3106 147.341 40.1588 146.479C40.005 145.608 39.9844 144.815 40.097 144.102C40.2077 143.379 40.4367 142.742 40.7841 142.194C41.1295 141.635 41.5804 141.181 42.1365 140.834C42.6908 140.477 43.3356 140.233 44.071 140.103C44.6487 140.001 45.1922 139.981 45.7013 140.043C46.2105 140.105 46.6643 140.253 47.0628 140.486C47.47 140.706 47.8095 141.004 48.0813 141.378C48.3531 141.753 48.5344 142.197 48.6252 142.712L46.852 143.528C46.7773 143.043 46.6071 142.662 46.3414 142.384C46.0863 142.104 45.7768 141.915 45.4128 141.816C45.0594 141.716 44.6883 141.7 44.2997 141.769C43.9635 141.828 43.6394 141.956 43.3273 142.151C43.0258 142.345 42.7706 142.618 42.5617 142.969C42.3509 143.309 42.2084 143.73 42.1342 144.23C42.0705 144.729 42.0988 145.32 42.2192 146.002C42.3748 146.885 42.6277 147.582 42.978 148.094C43.3265 148.596 43.7497 148.939 44.2477 149.122C44.7543 149.292 45.2965 149.327 45.8743 149.225C46.4625 149.121 46.9096 148.923 47.2155 148.631C47.5196 148.328 47.7161 147.968 47.8052 147.552C47.8923 147.125 47.9004 146.679 47.8294 146.215L49.6442 146.188C49.7319 146.746 49.7395 147.281 49.6672 147.792C49.6035 148.291 49.4359 148.754 49.1646 149.181C48.8915 149.597 48.5046 149.952 48.0041 150.246C47.5035 150.54 46.8698 150.755 46.103 150.89ZM53.9307 149.51C53.4685 149.592 53.044 149.58 52.6572 149.475C52.2686 149.359 51.9387 149.146 51.6674 148.837C51.4067 148.525 51.231 148.112 51.1402 147.598C51.0643 147.167 51.0783 146.785 51.1821 146.453C51.2965 146.119 51.4998 145.828 51.7921 145.582C52.0825 145.325 52.4583 145.091 52.9193 144.879C53.3889 144.656 53.9358 144.44 54.5599 144.233C54.9078 144.117 55.1874 144.014 55.3987 143.922C55.6206 143.829 55.7747 143.721 55.8613 143.597C55.9564 143.461 55.9846 143.283 55.9457 143.062C55.8883 142.737 55.7236 142.479 55.4518 142.288C55.1799 142.098 54.7919 142.047 54.2877 142.136C53.9935 142.188 53.7139 142.291 53.4488 142.446C53.1942 142.6 52.9866 142.804 52.8259 143.06C52.6652 143.316 52.5753 143.635 52.556 144.017L50.694 143.777C50.7268 143.349 50.8258 142.958 50.9908 142.604C51.1558 142.25 51.3817 141.934 51.6684 141.656C51.9552 141.378 52.2994 141.149 52.7011 140.97C53.1132 140.789 53.5662 140.655 54.0599 140.568C54.8267 140.433 55.4792 140.447 56.0174 140.612C56.5556 140.778 56.9918 141.101 57.326 141.584C57.6583 142.056 57.8958 142.697 58.0385 143.505L58.3107 145.05C58.3737 145.407 58.4447 145.779 58.5238 146.166C58.6115 146.54 58.7001 146.92 58.7896 147.305C58.8878 147.677 58.9894 148.039 59.0944 148.388L57.3139 148.702C57.22 148.416 57.1277 148.107 57.0369 147.776C56.9461 147.446 56.8639 147.103 56.7905 146.747L56.5384 146.792C56.4617 147.217 56.3164 147.622 56.1026 148.006C55.8887 148.39 55.5998 148.717 55.2358 148.987C54.8805 149.245 54.4455 149.419 53.9307 149.51ZM54.4444 147.908C54.6545 147.871 54.8634 147.797 55.071 147.684C55.2787 147.572 55.4693 147.424 55.643 147.242C55.8271 147.058 55.989 146.84 56.1287 146.588C56.2684 146.336 56.3744 146.046 56.4467 145.72L56.1893 144.351L56.5786 144.348C56.4259 144.526 56.2257 144.681 55.9779 144.811C55.7301 144.941 55.4628 145.054 55.1761 145.147C54.8999 145.24 54.6203 145.343 54.3373 145.458C54.0629 145.56 53.8185 145.679 53.6041 145.815C53.3878 145.939 53.2262 146.098 53.1193 146.29C53.0105 146.472 52.9811 146.704 53.0311 146.988C53.0941 147.345 53.2535 147.604 53.5093 147.765C53.7756 147.924 54.0873 147.971 54.4444 147.908ZM61.0356 148.046L60.1521 143.035L59.5825 139.805L61.2527 139.511L61.6398 142.074L61.9234 142.024C61.9612 141.379 62.0648 140.83 62.2341 140.377C62.414 139.923 62.6754 139.563 63.0184 139.297C63.3719 139.029 63.8112 138.848 64.3365 138.756C65.2714 138.591 66.0388 138.797 66.6387 139.373C67.2491 139.948 67.6766 140.929 67.9211 142.315L68.6934 146.696L66.6923 147.049L65.956 142.873C65.7986 141.98 65.5472 141.353 65.2018 140.991C64.8651 140.618 64.4394 140.476 63.9247 140.567C63.473 140.646 63.1198 140.855 62.8652 141.192C62.6087 141.519 62.4372 141.928 62.3506 142.42C62.2746 142.91 62.2804 143.434 62.368 143.993L63.021 147.696L61.0356 148.046ZM73.7898 146.008C73.0964 146.131 72.4609 146.059 71.8832 145.792C71.316 145.524 70.8394 145.093 70.4533 144.501C70.0653 143.898 69.7935 143.155 69.638 142.273C69.4916 141.443 69.4819 140.681 69.6086 139.987C69.7459 139.291 70.029 138.716 70.4579 138.261C70.8867 137.806 71.4583 137.516 72.1727 137.39C72.7294 137.292 73.2111 137.321 73.6176 137.477C74.0223 137.622 74.3745 137.868 74.6741 138.216C74.9738 138.564 75.232 138.985 75.4488 139.477L75.7797 139.419C75.6574 139.094 75.5413 138.773 75.4313 138.457C75.3214 138.14 75.2195 137.839 75.1256 137.552C75.0404 137.253 74.9774 136.988 74.9366 136.757L74.4782 134.157L76.4951 133.801L77.7379 140.942L78.465 144.973L76.7632 145.273L76.3835 142.935L76.0841 142.988C76.0649 143.555 75.9678 144.048 75.7929 144.469C75.6285 144.888 75.38 145.23 75.0476 145.494C74.7132 145.748 74.294 145.919 73.7898 146.008ZM74.1153 144.261C74.462 144.2 74.7527 144.068 74.9875 143.864C75.231 143.648 75.4146 143.399 75.5382 143.117C75.6618 142.835 75.7397 142.54 75.7719 142.231C75.8127 141.909 75.81 141.617 75.7637 141.355L75.7192 141.103C75.6822 140.893 75.6118 140.678 75.508 140.458C75.4147 140.236 75.2909 140.025 75.1364 139.825C74.9906 139.612 74.8179 139.431 74.6184 139.282C74.417 139.123 74.1914 139.011 73.9418 138.947C73.7008 138.87 73.4385 138.857 73.1549 138.907C72.7452 138.979 72.419 139.156 72.1761 139.437C71.9332 139.718 71.7744 140.076 71.6995 140.512C71.6229 140.937 71.6308 141.412 71.7234 141.937C71.8179 142.473 71.9739 142.928 72.1913 143.301C72.4193 143.672 72.6945 143.943 73.017 144.114C73.35 144.282 73.7161 144.332 74.1153 144.261ZM80.6548 144.587L79.2017 136.346L81.1871 135.996L82.6402 144.237L80.6548 144.587ZM79.9693 134.894C79.5597 134.967 79.235 134.937 78.9952 134.806C78.7537 134.665 78.6042 134.431 78.5467 134.105C78.4875 133.769 78.5481 133.499 78.7285 133.294C78.9195 133.087 79.2145 132.948 79.6137 132.878C80.0234 132.805 80.3481 132.835 80.5878 132.966C80.8381 133.095 80.9928 133.328 81.0521 133.664C81.1095 133.989 81.0437 134.261 80.8546 134.478C80.6741 134.683 80.379 134.822 79.9693 134.894ZM87.8387 143.531C87.1453 143.653 86.5098 143.581 85.9321 143.315C85.3649 143.047 84.8883 142.616 84.5022 142.024C84.1142 141.42 83.8424 140.678 83.6869 139.795C83.5405 138.965 83.5308 138.204 83.6575 137.51C83.7948 136.814 84.0779 136.239 84.5068 135.784C84.9356 135.329 85.5072 135.039 86.2216 134.913C86.7783 134.815 87.26 134.844 87.6665 134.999C88.0712 135.145 88.4234 135.391 88.723 135.739C89.0227 136.087 89.2809 136.507 89.4977 137L89.8286 136.941C89.7063 136.616 89.5902 136.296 89.4802 135.979C89.3703 135.663 89.2684 135.361 89.1745 135.075C89.0893 134.776 89.0263 134.511 88.9855 134.279L88.5271 131.68L90.544 131.324L91.7868 138.465L92.5139 142.496L90.8121 142.796L90.4324 140.458L90.133 140.511C90.1138 141.077 90.0167 141.571 89.8418 141.992C89.6774 142.411 89.4289 142.752 89.0965 143.017C88.7621 143.271 88.3429 143.442 87.8387 143.531ZM88.1642 141.784C88.5109 141.723 88.8016 141.59 89.0364 141.387C89.2799 141.17 89.4635 140.921 89.5871 140.64C89.7107 140.358 89.7886 140.062 89.8208 139.754C89.8616 139.432 89.8589 139.14 89.8126 138.878L89.7681 138.626C89.7311 138.415 89.6607 138.2 89.5569 137.98C89.4636 137.759 89.3398 137.548 89.1853 137.347C89.0395 137.135 88.8668 136.954 88.6673 136.805C88.4659 136.646 88.2403 136.534 87.9907 136.469C87.7497 136.393 87.4874 136.379 87.2038 136.429C86.7941 136.502 86.4679 136.678 86.225 136.959C85.9821 137.241 85.8233 137.599 85.7484 138.035C85.6718 138.46 85.6797 138.935 85.7723 139.46C85.8668 139.996 86.0228 140.45 86.2402 140.824C86.4682 141.195 86.7434 141.466 87.0659 141.637C87.3989 141.805 87.765 141.854 88.1642 141.784ZM96.6622 141.975C96.2 142.057 95.7755 142.045 95.3887 141.94C95 141.824 94.6701 141.612 94.3989 141.302C94.1382 140.991 93.9624 140.578 93.8717 140.063C93.7957 139.632 93.8097 139.251 93.9135 138.918C94.0279 138.584 94.2312 138.293 94.5235 138.047C94.814 137.79 95.1897 137.556 95.6507 137.345C96.1203 137.121 96.6672 136.905 97.2913 136.698C97.6392 136.582 97.9188 136.479 98.1301 136.387C98.352 136.294 98.5062 136.186 98.5927 136.062C98.6879 135.926 98.716 135.748 98.6771 135.527C98.6197 135.202 98.4551 134.944 98.1832 134.753C97.9114 134.563 97.5233 134.512 97.0191 134.601C96.725 134.653 96.4454 134.757 96.1803 134.912C95.9257 135.065 95.718 135.269 95.5573 135.525C95.3966 135.781 95.3067 136.1 95.2875 136.483L93.4255 136.242C93.4583 135.814 93.5572 135.423 93.7222 135.069C93.8872 134.715 94.1131 134.399 94.3999 134.121C94.6866 133.843 95.0308 133.614 95.4325 133.435C95.8447 133.254 96.2976 133.12 96.7913 133.033C97.5581 132.898 98.2107 132.913 98.7488 133.078C99.287 133.243 99.7232 133.567 100.057 134.049C100.39 134.521 100.627 135.162 100.77 135.971L101.042 137.515C101.105 137.872 101.176 138.244 101.255 138.631C101.343 139.005 101.431 139.385 101.521 139.77C101.619 140.143 101.721 140.504 101.826 140.854L100.045 141.168C99.9514 140.881 99.8591 140.572 99.7683 140.242C99.6775 139.911 99.5954 139.568 99.5219 139.213L99.2698 139.257C99.1931 139.682 99.0478 140.087 98.834 140.471C98.6201 140.856 98.3312 141.183 97.9672 141.453C97.6119 141.71 97.1769 141.885 96.6622 141.975ZM97.1759 140.374C97.386 140.337 97.5948 140.262 97.8024 140.15C98.0101 140.037 98.2007 139.89 98.3744 139.708C98.5585 139.523 98.7205 139.305 98.8601 139.053C98.9998 138.801 99.1058 138.512 99.1782 138.185L98.9207 136.817L99.31 136.813C99.1573 136.992 98.9571 137.146 98.7093 137.276C98.4615 137.407 98.1943 137.519 97.9075 137.613C97.6313 137.705 97.3517 137.808 97.0687 137.923C96.7943 138.026 96.5499 138.145 96.3355 138.28C96.1192 138.405 95.9576 138.563 95.8507 138.755C95.7419 138.937 95.7125 139.17 95.7625 139.453C95.8255 139.81 95.9849 140.069 96.2407 140.23C96.507 140.389 96.8187 140.437 97.1759 140.374ZM106.7 140.189C105.828 140.343 105.141 140.226 104.639 139.838C104.146 139.437 103.813 138.743 103.639 137.756L102.941 133.801L101.744 134.012L101.497 132.431L102.285 132.292C102.59 132.238 102.807 132.151 102.938 132.03C103.066 131.9 103.13 131.71 103.13 131.46L103.095 130.248L104.245 130.045L104.567 131.873L106.742 131.49L107.033 133.144L104.859 133.528L105.531 137.341C105.6 137.729 105.739 137.997 105.949 138.144C106.17 138.29 106.464 138.33 106.832 138.265C107.031 138.23 107.222 138.175 107.403 138.099C107.594 138.012 107.763 137.895 107.91 137.75L108.244 139.641C107.947 139.801 107.665 139.921 107.398 140.001C107.142 140.089 106.91 140.152 106.7 140.189ZM113.569 138.994C112.897 139.113 112.282 139.124 111.723 139.027C111.175 138.929 110.691 138.733 110.271 138.438C109.849 138.134 109.498 137.741 109.218 137.259C108.949 136.776 108.757 136.209 108.642 135.558C108.527 134.906 108.511 134.292 108.593 133.714C108.675 133.136 108.855 132.617 109.131 132.157C109.407 131.697 109.778 131.312 110.243 131.002C110.708 130.693 111.256 130.482 111.887 130.371C112.485 130.266 113.039 130.271 113.547 130.387C114.065 130.502 114.517 130.731 114.902 131.074C115.297 131.406 115.624 131.851 115.886 132.412C116.145 132.962 116.321 133.624 116.415 134.398L109.963 135.585L109.76 134.434L115.03 133.456L114.466 134.222C114.424 133.612 114.29 133.132 114.066 132.781C113.852 132.429 113.577 132.185 113.239 132.05C112.911 131.913 112.558 131.878 112.18 131.944C111.749 132.02 111.392 132.202 111.107 132.491C110.831 132.767 110.641 133.136 110.538 133.598C110.434 134.05 110.435 134.581 110.543 135.19C110.704 136.104 111.024 136.751 111.503 137.133C111.992 137.512 112.594 137.639 113.308 137.513C113.613 137.459 113.868 137.371 114.074 137.248C114.28 137.125 114.445 136.988 114.57 136.836C114.693 136.673 114.782 136.5 114.836 136.318C114.901 136.133 114.939 135.947 114.949 135.761L116.765 135.831C116.739 136.237 116.659 136.613 116.525 136.962C116.39 137.3 116.19 137.606 115.924 137.88C115.669 138.153 115.346 138.383 114.957 138.571C114.568 138.759 114.105 138.9 113.569 138.994ZM123.484 137.035L122.178 129.629L120.666 129.896L120.357 128.147C120.851 128.06 121.241 127.904 121.526 127.681C121.812 127.457 121.958 127.09 121.966 126.58L123.667 126.279L125.501 136.679L123.484 137.035Z" fill="#045FFD" fill-opacity="0.2"/>
<rect x="42.3048" y="163.534" width="48" height="48" transform="rotate(-10 42.3048 163.534)" fill="#E1ECFF"/>
<rect x="101.393" y="153.115" width="124" height="8" transform="rotate(-10 101.393 153.115)" fill="#E1ECFF"/>
<rect x="104.866" y="172.811" width="124" height="8" transform="rotate(-10 104.866 172.811)" fill="#E1ECFF"/>
<rect x="108.339" y="192.507" width="124" height="8" transform="rotate(-10 108.339 192.507)" fill="#E1ECFF"/>
<rect x="52.7237" y="222.622" width="184" height="8" transform="rotate(-10 52.7237 222.622)" fill="#E1ECFF"/>
<rect x="56.1967" y="242.318" width="184" height="8" transform="rotate(-10 56.1967 242.318)" fill="#E1ECFF"/>
<rect x="59.6696" y="262.015" width="184" height="8" transform="rotate(-10 59.6696 262.015)" fill="#E1ECFF"/>
</g>
<g filter="url(#filter2_dddd_3390_7606)">
<mask id="path-22-inside-3_3390_7606" fill="white">
<path d="M215.516 66.7461L426.709 85.2231L404.484 339.253L193.291 320.776L215.516 66.7461Z"/>
</mask>
<path d="M215.516 66.7461L426.709 85.2231L404.484 339.253L193.291 320.776L215.516 66.7461Z" fill="white"/>
<path d="M197.276 321.124L219.501 67.0947L211.531 66.3975L189.306 320.427L197.276 321.124Z" fill="#E1ECFF" mask="url(#path-22-inside-3_3390_7606)"/>
<path d="M242.91 92.4393C242.113 92.3695 241.411 92.1957 240.804 91.9177C240.197 91.6291 239.696 91.2372 239.301 90.7422C238.905 90.2472 238.619 89.66 238.443 88.9807C238.278 88.2918 238.234 87.5116 238.31 86.6403C238.387 85.7583 238.573 84.9875 238.866 84.3279C239.16 83.6577 239.546 83.1025 240.024 82.6625C240.502 82.2118 241.055 81.8907 241.682 81.6993C242.31 81.4973 242.996 81.4288 243.74 81.4939C244.324 81.545 244.854 81.6663 245.33 81.8579C245.806 82.0494 246.206 82.3093 246.53 82.6375C246.867 82.956 247.118 83.3313 247.283 83.7634C247.449 84.1955 247.509 84.6718 247.463 85.1925L245.539 85.5221C245.593 85.0342 245.527 84.6216 245.342 84.2842C245.168 83.9478 244.918 83.685 244.592 83.4958C244.277 83.3076 243.923 83.1963 243.529 83.1619C243.189 83.1322 242.843 83.1715 242.491 83.2799C242.15 83.3892 241.833 83.5863 241.54 83.8712C241.248 84.1455 241.002 84.5148 240.801 84.979C240.61 85.4442 240.484 86.0221 240.424 86.7128C240.346 87.6054 240.41 88.3444 240.616 88.9299C240.822 89.5048 241.142 89.945 241.576 90.2506C242.021 90.5466 242.536 90.7201 243.121 90.7712C243.716 90.8233 244.199 90.7478 244.57 90.5447C244.942 90.331 245.225 90.0345 245.419 89.6553C245.613 89.2654 245.736 88.8372 245.788 88.3706L247.548 88.8137C247.488 89.3759 247.357 89.8945 247.155 90.3693C246.964 90.8345 246.683 91.2382 246.31 91.5803C245.939 91.9119 245.473 92.1549 244.913 92.3093C244.354 92.4638 243.686 92.5071 242.91 92.4393ZM250.829 93.132C250.361 93.0911 249.954 92.9699 249.608 92.7682C249.262 92.556 248.999 92.2652 248.817 91.896C248.646 91.5277 248.583 91.0832 248.628 90.5625C248.666 90.1268 248.779 89.7619 248.965 89.4677C249.162 89.1744 249.433 88.9465 249.78 88.7841C250.127 88.611 250.55 88.4821 251.05 88.3973C251.562 88.3029 252.146 88.2362 252.802 88.1973C253.168 88.1757 253.465 88.1482 253.693 88.1146C253.931 88.0819 254.108 88.0171 254.224 87.9201C254.351 87.8134 254.424 87.6485 254.444 87.4254C254.473 87.096 254.38 86.8042 254.167 86.5499C253.954 86.2957 253.592 86.1463 253.082 86.1017C252.784 86.0756 252.488 86.1032 252.191 86.1844C251.906 86.2664 251.652 86.4102 251.431 86.6157C251.209 86.8212 251.04 87.1062 250.922 87.4707L249.186 86.7566C249.329 86.3515 249.525 85.9993 249.776 85.7C250.027 85.4008 250.327 85.154 250.676 84.9597C251.025 84.7653 251.417 84.6336 251.851 84.5646C252.296 84.4964 252.768 84.4842 253.268 84.5279C254.044 84.5957 254.67 84.779 255.147 85.0778C255.624 85.3765 255.962 85.8022 256.16 86.3549C256.358 86.8969 256.422 87.5771 256.351 88.3953L256.214 89.9573C256.182 90.3186 256.155 90.6963 256.131 91.0904C256.119 91.4748 256.106 91.8645 256.093 92.2595C256.091 92.6448 256.096 93.02 256.107 93.385L254.306 93.2274C254.289 92.9262 254.28 92.6041 254.278 92.2613C254.276 91.9185 254.285 91.566 254.306 91.2038L254.051 91.1814C253.867 91.5722 253.622 91.9255 253.316 92.2414C253.01 92.5573 252.646 92.7985 252.225 92.9651C251.815 93.1219 251.349 93.1776 250.829 93.132ZM251.739 91.718C251.952 91.7366 252.173 91.7185 252.403 91.6636C252.632 91.6088 252.855 91.5158 253.069 91.3847C253.295 91.2545 253.508 91.0858 253.708 90.8784C253.908 90.6711 254.086 90.4189 254.24 90.1219L254.345 88.7338L254.722 88.831C254.529 88.964 254.295 89.0613 254.022 89.1231C253.749 89.1849 253.462 89.224 253.161 89.2405C252.87 89.2579 252.573 89.2854 252.27 89.3232C251.979 89.3512 251.712 89.4028 251.47 89.478C251.228 89.5425 251.031 89.6538 250.878 89.8117C250.726 89.959 250.638 90.1761 250.612 90.463C250.581 90.8243 250.668 91.1157 250.873 91.3371C251.089 91.5594 251.378 91.6864 251.739 91.718ZM258.07 93.5568L258.514 88.4882L258.8 85.2206L260.489 85.3685L260.2 87.945L260.486 87.9701C260.69 87.3562 260.932 86.8527 261.213 86.4597C261.504 86.0676 261.85 85.7873 262.25 85.6189C262.661 85.4514 263.132 85.3909 263.663 85.4374C264.609 85.5201 265.297 85.9176 265.727 86.6298C266.168 87.3429 266.327 88.4008 266.204 89.8034L265.817 94.2345L263.792 94.0574L264.162 89.8336C264.241 88.9303 264.161 88.2594 263.921 87.8208C263.692 87.3726 263.317 87.1256 262.797 87.0801C262.34 87.0401 261.945 87.1501 261.612 87.41C261.279 87.6594 261.008 88.0104 260.797 88.463C260.596 88.9166 260.466 89.4246 260.406 89.9868L260.079 93.7325L258.07 93.5568ZM270.917 94.8896C270.216 94.8282 269.621 94.5941 269.132 94.1873C268.653 93.7814 268.304 93.2422 268.085 92.5699C267.866 91.8869 267.796 91.0991 267.874 90.2065C267.947 89.367 268.135 88.6286 268.437 87.9911C268.75 87.3546 269.172 86.8723 269.704 86.5441C270.236 86.2158 270.863 86.0833 271.586 86.1466C272.149 86.1958 272.607 86.3483 272.959 86.604C273.313 86.8491 273.589 87.1784 273.788 87.592C273.988 88.0056 274.128 88.4784 274.21 89.0102L274.545 89.0395C274.511 88.6939 274.482 88.354 274.458 88.02C274.433 87.6859 274.413 87.3683 274.396 87.067C274.391 86.7561 274.399 86.4837 274.42 86.2499L274.65 83.62L276.69 83.7985L276.042 91.0175L275.701 95.0993L273.98 94.9487L274.218 92.5925L273.915 92.566C273.75 93.1083 273.528 93.5601 273.251 93.9212C272.983 94.2833 272.655 94.549 272.265 94.7184C271.877 94.8771 271.427 94.9342 270.917 94.8896ZM271.684 93.2863C272.035 93.317 272.35 93.2642 272.629 93.1281C272.921 92.9822 273.162 92.7892 273.355 92.5491C273.547 92.3089 273.699 92.0438 273.81 91.7537C273.932 91.4539 274.005 91.1712 274.028 90.9055L274.051 90.6505C274.069 90.438 274.057 90.2121 274.014 89.9727C273.981 89.7343 273.916 89.4984 273.819 89.265C273.733 89.0219 273.613 88.8027 273.459 88.6071C273.305 88.401 273.116 88.2346 272.892 88.1078C272.679 87.9714 272.429 87.8907 272.142 87.8656C271.728 87.8293 271.367 87.9155 271.059 88.1242C270.752 88.3329 270.506 88.6379 270.321 89.0393C270.137 89.4301 270.022 89.8911 269.975 90.4224C269.928 90.9644 269.961 91.4437 270.074 91.8605C270.198 92.2783 270.394 92.6113 270.661 92.8595C270.939 93.1087 271.28 93.2509 271.684 93.2863ZM277.916 95.2931L278.646 86.9569L280.654 87.1327L279.925 95.4688L277.916 95.2931ZM279.763 85.7537C279.348 85.7175 279.042 85.605 278.845 85.4164C278.648 85.2172 278.564 84.9529 278.593 84.6235C278.623 84.2834 278.751 84.0377 278.979 83.8863C279.217 83.7358 279.538 83.6782 279.941 83.7135C280.356 83.7498 280.662 83.8622 280.859 84.0508C281.068 84.2404 281.157 84.5052 281.127 84.8452C281.098 85.1746 280.965 85.4199 280.726 85.581C280.498 85.7324 280.177 85.79 279.763 85.7537ZM285.129 96.1329C284.427 96.0715 283.832 95.8374 283.343 95.4306C282.865 95.0247 282.516 94.4855 282.296 93.8132C282.077 93.1302 282.007 92.3424 282.085 91.4498C282.159 90.6104 282.346 89.8719 282.648 89.2345C282.961 88.598 283.383 88.1156 283.915 87.7874C284.447 87.4592 285.075 87.3267 285.797 87.3899C286.36 87.4392 286.818 87.5916 287.171 87.8473C287.524 88.0924 287.8 88.4217 288 88.8353C288.199 89.249 288.34 89.7217 288.422 90.2535L288.756 90.2828C288.722 89.9372 288.693 89.5974 288.669 89.2633C288.645 88.9292 288.624 88.6116 288.608 88.3103C288.603 87.9994 288.611 87.727 288.631 87.4933L288.861 84.8633L290.901 85.0418L290.254 92.2608L289.913 96.3426L288.191 96.192L288.429 93.8358L288.127 93.8093C287.961 94.3517 287.74 94.8034 287.462 95.1646C287.195 95.5266 286.866 95.7924 286.477 95.9617C286.088 96.1205 285.639 96.1775 285.129 96.1329ZM285.895 94.5296C286.246 94.5603 286.561 94.5075 286.841 94.3714C287.132 94.2256 287.374 94.0326 287.566 93.7924C287.758 93.5523 287.91 93.2871 288.021 92.997C288.144 92.6972 288.216 92.4145 288.24 92.1489L288.262 91.8939C288.281 91.6813 288.268 91.4554 288.225 91.216C288.192 90.9776 288.127 90.7417 288.03 90.5083C287.944 90.2653 287.824 90.046 287.67 89.8505C287.517 89.6443 287.328 89.4779 287.103 89.3512C286.89 89.2148 286.64 89.134 286.353 89.1089C285.939 89.0727 285.578 89.1589 285.271 89.3675C284.963 89.5762 284.717 89.8812 284.532 90.2826C284.348 90.6734 284.233 91.1345 284.186 91.6658C284.139 92.2077 284.172 92.6871 284.285 93.1039C284.41 93.5216 284.605 93.8546 284.873 94.1028C285.151 94.352 285.492 94.4943 285.895 94.5296ZM294.054 96.9138C293.587 96.8729 293.18 96.7516 292.833 96.55C292.488 96.3377 292.224 96.047 292.042 95.6777C291.871 95.3094 291.808 94.8649 291.854 94.3442C291.892 93.9085 292.004 93.5436 292.19 93.2494C292.387 92.9561 292.659 92.7282 293.005 92.5658C293.352 92.3927 293.776 92.2638 294.276 92.1791C294.787 92.0846 295.371 92.0179 296.028 91.979C296.394 91.9575 296.691 91.9299 296.918 91.8963C297.157 91.8636 297.334 91.7988 297.449 91.7018C297.576 91.5952 297.65 91.4303 297.669 91.2071C297.698 90.8777 297.606 90.5859 297.393 90.3317C297.179 90.0775 296.818 89.928 296.307 89.8834C296.01 89.8574 295.713 89.8849 295.417 89.9661C295.131 90.0482 294.878 90.192 294.656 90.3975C294.435 90.6029 294.266 90.8879 294.148 91.2524L292.412 90.5383C292.554 90.1332 292.751 89.781 293.002 89.4818C293.253 89.1825 293.553 88.9357 293.902 88.7414C294.251 88.5471 294.642 88.4154 295.077 88.3463C295.522 88.2782 295.994 88.2659 296.493 88.3096C297.269 88.3775 297.895 88.5608 298.373 88.8595C298.85 89.1582 299.187 89.5839 299.385 90.1366C299.584 90.6787 299.648 91.3588 299.576 92.177L299.439 93.739C299.408 94.1003 299.38 94.478 299.356 94.8721C299.344 95.2565 299.331 95.6462 299.318 96.0412C299.317 96.4266 299.321 96.8017 299.332 97.1667L297.531 97.0092C297.515 96.7079 297.505 96.3859 297.503 96.0431C297.501 95.7002 297.51 95.3477 297.531 94.9855L297.276 94.9632C297.092 95.354 296.847 95.7073 296.541 96.0231C296.235 96.339 295.872 96.5802 295.45 96.7468C295.04 96.9037 294.575 96.9593 294.054 96.9138ZM294.965 95.4998C295.177 95.5184 295.399 95.5002 295.628 95.4454C295.858 95.3905 296.08 95.2975 296.295 95.1664C296.521 95.0363 296.733 94.8675 296.934 94.6602C297.134 94.4528 297.311 94.2006 297.466 93.9036L297.571 92.5155L297.948 92.6128C297.754 92.7457 297.521 92.8431 297.248 92.9049C296.975 92.9666 296.687 93.0057 296.386 93.0222C296.096 93.0396 295.799 93.0672 295.496 93.1049C295.204 93.1329 294.937 93.1845 294.695 93.2597C294.454 93.3243 294.257 93.4355 294.104 93.5935C293.952 93.7408 293.863 93.9579 293.838 94.2448C293.806 94.6061 293.893 94.8974 294.099 95.1188C294.315 95.3412 294.604 95.4682 294.965 95.4998ZM304.212 97.7864C303.33 97.7092 302.697 97.4183 302.313 96.9136C301.94 96.3991 301.798 95.6425 301.885 94.6436L302.235 90.6429L301.024 90.5369L301.195 88.9458L301.992 89.0155C302.3 89.0425 302.533 89.0147 302.69 88.932C302.848 88.8388 302.959 88.6718 303.023 88.4312L303.303 87.2511L304.466 87.3529L304.304 89.2018L306.504 89.3942L306.358 91.0678L304.158 90.8754L303.821 94.7327C303.786 95.1258 303.851 95.4206 304.016 95.6171C304.192 95.8145 304.465 95.9294 304.837 95.962C305.039 95.9796 305.238 95.9756 305.433 95.9498C305.639 95.9143 305.833 95.8456 306.013 95.7436L305.845 97.6563C305.517 97.7346 305.214 97.7777 304.935 97.7854C304.665 97.8047 304.424 97.805 304.212 97.7864ZM311.157 98.4101C310.477 98.3506 309.88 98.2019 309.365 97.9642C308.861 97.7274 308.444 97.4125 308.115 97.0196C307.786 96.6161 307.549 96.1456 307.403 95.6082C307.268 95.0717 307.229 94.4741 307.287 93.8153C307.344 93.1565 307.488 92.5587 307.717 92.0219C307.946 91.4852 308.253 91.0302 308.639 90.6571C309.025 90.284 309.483 90.0082 310.012 89.8297C310.542 89.6511 311.126 89.5898 311.763 89.6456C312.369 89.6985 312.902 89.8469 313.362 90.0906C313.834 90.3353 314.211 90.6735 314.494 91.1051C314.789 91.5271 314.991 92.0426 315.098 92.6516C315.206 93.25 315.205 93.9352 315.095 94.7072L308.555 94.1833L308.657 93.0197L314.001 93.439L313.259 94.0326C313.375 93.4325 313.371 92.9342 313.245 92.5377C313.129 92.1421 312.926 91.8352 312.635 91.617C312.354 91.3997 312.022 91.2743 311.64 91.2409C311.204 91.2027 310.811 91.2862 310.461 91.4911C310.123 91.6864 309.845 91.9939 309.626 92.4138C309.408 92.823 309.272 93.3358 309.218 93.9521C309.137 94.8766 309.279 95.585 309.643 96.0772C310.017 96.5704 310.565 96.8486 311.288 96.9118C311.596 96.9388 311.866 96.9195 312.096 96.854C312.327 96.7885 312.522 96.6985 312.682 96.584C312.843 96.4589 312.973 96.3151 313.073 96.1525C313.184 95.9908 313.268 95.8215 313.326 95.6446L315.062 96.1819C314.932 96.5667 314.757 96.9102 314.538 97.2122C314.32 97.5036 314.047 97.7474 313.719 97.9436C313.402 98.1407 313.031 98.2796 312.607 98.3602C312.182 98.4409 311.699 98.4575 311.157 98.4101ZM319.918 98.9678L320.105 96.8319L324.314 94.4376C324.539 94.3075 324.761 94.1609 324.978 93.9979C325.207 93.8359 325.421 93.6565 325.62 93.4598C325.831 93.2533 326 93.0273 326.129 92.7815C326.269 92.5261 326.352 92.2496 326.378 91.9521C326.406 91.6333 326.355 91.3559 326.226 91.1197C326.107 90.8845 325.916 90.691 325.65 90.5393C325.396 90.3886 325.072 90.296 324.679 90.2616C324.328 90.2309 324.021 90.2575 323.757 90.3415C323.503 90.4264 323.287 90.5681 323.109 90.7667C322.932 90.9546 322.793 91.1994 322.691 91.5011C322.59 91.8027 322.522 92.1554 322.486 92.5592L320.575 92.0066C320.633 91.2299 320.835 90.573 321.181 90.0359C321.529 89.4881 322.014 89.0862 322.636 88.8301C323.27 88.5643 324.011 88.4686 324.861 88.543C325.616 88.609 326.264 88.7888 326.806 89.0825C327.358 89.3771 327.774 89.7668 328.053 90.2516C328.332 90.7364 328.442 91.3135 328.383 91.983C328.338 92.493 328.207 92.9527 327.989 93.3619C327.782 93.7721 327.526 94.1351 327.22 94.451C326.925 94.7571 326.602 95.0286 326.249 95.2654C325.896 95.5023 325.557 95.7029 325.233 95.8672L322.396 97.4499L322.385 97.5775L328.05 97.9928L327.904 99.6664L319.918 98.9678Z" fill="#E1ECFF"/>
<rect x="228.404" y="103.007" width="48" height="48" transform="rotate(5 228.404 103.007)" fill="#E1ECFF"/>
<rect x="288.176" y="108.237" width="124" height="8" transform="rotate(5 288.176 108.237)" fill="#E1ECFF"/>
<rect x="286.433" y="128.161" width="124" height="8" transform="rotate(5 286.433 128.161)" fill="#E1ECFF"/>
<rect x="284.69" y="148.084" width="124" height="8" transform="rotate(5 284.69 148.084)" fill="#E1ECFF"/>
<rect x="223.175" y="162.779" width="184" height="8" transform="rotate(5 223.175 162.779)" fill="#E1ECFF"/>
<rect x="221.432" y="182.703" width="184" height="8" transform="rotate(5 221.432 182.703)" fill="#E1ECFF"/>
<rect x="219.689" y="202.627" width="184" height="8" transform="rotate(5 219.689 202.627)" fill="#E1ECFF"/>
<rect x="217.946" y="222.551" width="184" height="8" transform="rotate(5 217.946 222.551)" fill="#E1ECFF"/>
</g>
<g filter="url(#filter3_dddd_3390_7606)">
<mask id="path-33-inside-4_3390_7606" fill="white">
<path d="M71.291 85.2246L282.484 66.7476L304.709 320.777L93.5157 339.254L71.291 85.2246Z"/>
</mask>
<path d="M71.291 85.2246L282.484 66.7476L304.709 320.777L93.5157 339.254L71.291 85.2246Z" fill="white"/>
<path d="M97.5005 338.906L75.2758 84.876L67.3062 85.5732L89.531 339.603L97.5005 338.906Z" fill="#E1ECFF" mask="url(#path-33-inside-4_3390_7606)"/>
<path d="M95.1663 106.433C94.3693 106.502 93.6476 106.453 93.0011 106.285C92.3537 106.106 91.7922 105.807 91.3166 105.388C90.8409 104.969 90.4574 104.441 90.166 103.802C89.8843 103.153 89.7053 102.392 89.6291 101.521C89.5519 100.639 89.6005 99.8474 89.7747 99.1468C89.9481 98.4357 90.2317 97.822 90.6255 97.3057C91.0184 96.7788 91.507 96.3666 92.0913 96.0692C92.6747 95.7612 93.3383 95.5747 94.0821 95.5096C94.6666 95.4585 95.2097 95.4859 95.7115 95.5919C96.2133 95.6979 96.6526 95.8843 97.0293 96.1512C97.4156 96.4065 97.7279 96.7325 97.9661 97.1292C98.2042 97.526 98.3461 97.9847 98.3916 98.5054L96.554 99.164C96.5219 98.6743 96.3856 98.2794 96.1452 97.9792C95.9154 97.6781 95.6235 97.4627 95.2696 97.333C94.9262 97.2025 94.558 97.1544 94.1648 97.1888C93.8248 97.2185 93.4908 97.3173 93.1628 97.4852C92.8455 97.6522 92.5675 97.9014 92.3288 98.2328C92.0892 98.5535 91.9106 98.96 91.793 99.4521C91.6861 99.9433 91.6628 100.534 91.7233 101.225C91.8014 102.118 91.9926 102.834 92.2969 103.375C92.6002 103.905 92.992 104.283 93.4721 104.509C93.962 104.723 94.4992 104.805 95.0836 104.753C95.6786 104.701 96.1413 104.543 96.4715 104.279C96.8008 104.004 97.0279 103.663 97.1529 103.255C97.277 102.838 97.3239 102.395 97.2936 101.926L99.1039 102.057C99.1425 102.621 99.1035 103.154 98.9869 103.657C98.88 104.148 98.6727 104.595 98.3652 104.996C98.0568 105.387 97.6405 105.708 97.1162 105.957C96.5919 106.206 95.942 106.365 95.1663 106.433ZM103.085 105.74C102.617 105.781 102.195 105.732 101.819 105.594C101.442 105.445 101.132 105.204 100.889 104.872C100.656 104.539 100.517 104.112 100.471 103.591C100.433 103.156 100.48 102.777 100.613 102.455C100.756 102.132 100.984 101.86 101.296 101.64C101.608 101.409 102.003 101.209 102.48 101.039C102.968 100.857 103.531 100.69 104.171 100.537C104.528 100.453 104.815 100.374 105.034 100.301C105.263 100.228 105.426 100.133 105.523 100.018C105.63 99.8905 105.673 99.7154 105.654 99.4922C105.625 99.1628 105.483 98.8914 105.229 98.6781C104.975 98.4648 104.593 98.3804 104.083 98.4251C103.785 98.4511 103.498 98.5298 103.22 98.6612C102.953 98.7916 102.728 98.9772 102.546 99.218C102.364 99.4588 102.246 99.7689 102.194 100.148L100.36 99.7466C100.43 99.3229 100.562 98.9418 100.758 98.6035C100.953 98.2652 101.206 97.9701 101.515 97.7181C101.825 97.4662 102.188 97.2685 102.604 97.125C103.03 96.9806 103.493 96.8866 103.993 96.8429C104.768 96.775 105.417 96.8468 105.939 97.0581C106.46 97.2694 106.867 97.6301 107.158 98.14C107.448 98.6393 107.628 99.298 107.7 100.116L107.837 101.678C107.868 102.04 107.907 102.416 107.952 102.809C108.006 103.189 108.061 103.575 108.117 103.967C108.182 104.346 108.252 104.715 108.326 105.073L106.525 105.23C106.457 104.936 106.392 104.621 106.33 104.284C106.268 103.946 106.216 103.597 106.174 103.237L105.919 103.259C105.806 103.676 105.626 104.067 105.379 104.431C105.133 104.795 104.816 105.096 104.43 105.333C104.054 105.559 103.605 105.694 103.085 105.74ZM103.736 104.189C103.948 104.171 104.163 104.114 104.38 104.02C104.596 103.927 104.799 103.796 104.988 103.63C105.187 103.463 105.368 103.259 105.529 103.021C105.69 102.782 105.821 102.502 105.921 102.183L105.784 100.798L106.172 100.828C106.005 100.993 105.792 101.129 105.533 101.237C105.275 101.346 104.999 101.434 104.705 101.503C104.422 101.57 104.135 101.649 103.843 101.739C103.56 101.817 103.307 101.914 103.081 102.03C102.855 102.136 102.68 102.279 102.557 102.461C102.433 102.633 102.383 102.862 102.408 103.149C102.44 103.51 102.576 103.782 102.817 103.964C103.068 104.146 103.375 104.221 103.736 104.189ZM110.29 104.901L109.846 99.8321L109.561 96.5646L111.25 96.4167L111.412 99.0045L111.699 98.9794C111.793 98.3394 111.944 97.8015 112.152 97.3657C112.371 96.929 112.663 96.593 113.028 96.3576C113.403 96.1213 113.857 95.9799 114.388 95.9334C115.334 95.8507 116.08 96.1227 116.628 96.7493C117.186 97.3751 117.526 98.3893 117.649 99.7919L118.036 104.223L116.012 104.4L115.643 100.176C115.563 99.273 115.368 98.6263 115.055 98.236C114.752 97.8342 114.341 97.6561 113.82 97.7017C113.363 97.7416 112.993 97.9186 112.71 98.2324C112.426 98.5357 112.219 98.9285 112.09 99.4109C111.972 99.8924 111.932 100.415 111.971 100.979L112.298 104.725L110.29 104.901ZM123.173 103.982C122.472 104.044 121.845 103.917 121.293 103.601C120.751 103.284 120.314 102.814 119.981 102.19C119.647 101.555 119.441 100.792 119.363 99.8989C119.289 99.0595 119.346 98.2996 119.533 97.6194C119.73 96.9383 120.062 96.3899 120.529 95.9743C120.996 95.5587 121.591 95.3193 122.313 95.2561C122.877 95.2068 123.354 95.2775 123.745 95.4681C124.136 95.6481 124.465 95.9244 124.733 96.2972C125.001 96.6699 125.222 97.111 125.395 97.6205L125.73 97.5912C125.636 97.2568 125.549 96.9272 125.467 96.6024C125.385 96.2776 125.309 95.9684 125.241 95.6745C125.182 95.3692 125.142 95.0996 125.122 94.8658L124.892 92.2359L126.932 92.0574L127.548 99.2792L127.921 103.358L126.199 103.509L126.025 101.147L125.722 101.174C125.653 101.736 125.514 102.22 125.303 102.624C125.103 103.027 124.825 103.345 124.471 103.58C124.116 103.804 123.683 103.938 123.173 103.982ZM123.65 102.27C124 102.24 124.302 102.133 124.553 101.95C124.815 101.756 125.019 101.524 125.167 101.254C125.315 100.984 125.418 100.697 125.477 100.392C125.546 100.075 125.568 99.7843 125.545 99.5187L125.523 99.2636C125.504 99.0511 125.453 98.8308 125.369 98.6026C125.295 98.3734 125.19 98.1524 125.054 97.9395C124.927 97.715 124.771 97.5199 124.585 97.3541C124.398 97.1777 124.183 97.0466 123.94 96.9608C123.707 96.8634 123.447 96.8273 123.16 96.8524C122.745 96.8887 122.405 97.0362 122.138 97.2951C121.872 97.554 121.682 97.8971 121.57 98.3246C121.456 98.7414 121.423 99.2154 121.47 99.7467C121.517 100.289 121.633 100.755 121.817 101.146C122.011 101.536 122.262 101.83 122.568 102.028C122.886 102.225 123.246 102.306 123.65 102.27ZM130.136 103.164L129.407 94.8283L131.415 94.6525L132.144 102.989L130.136 103.164ZM130.298 93.4493C129.883 93.4856 129.563 93.428 129.335 93.2766C129.107 93.1145 128.978 92.8688 128.949 92.5394C128.92 92.1994 129.004 91.935 129.201 91.7464C129.41 91.5569 129.716 91.4445 130.119 91.4091C130.534 91.3729 130.855 91.4305 131.082 91.5819C131.32 91.7324 131.454 91.9776 131.484 92.3177C131.513 92.6471 131.423 92.9119 131.216 93.112C131.018 93.3006 130.712 93.4131 130.298 93.4493ZM137.384 102.739C136.683 102.8 136.056 102.673 135.504 102.357C134.962 102.041 134.525 101.57 134.192 100.946C133.858 100.312 133.652 99.5482 133.574 98.6556C133.501 97.8161 133.557 97.0563 133.744 96.3761C133.941 95.695 134.274 95.1466 134.74 94.731C135.207 94.3154 135.802 94.076 136.525 94.0128C137.088 93.9635 137.565 94.0342 137.957 94.2248C138.347 94.4048 138.676 94.6811 138.945 95.0538C139.213 95.4265 139.433 95.8677 139.606 96.3772L139.941 96.3479C139.848 96.0134 139.76 95.6838 139.678 95.3591C139.596 95.0343 139.521 94.725 139.452 94.4312C139.393 94.1258 139.354 93.8563 139.333 93.6225L139.103 90.9925L141.143 90.814L141.759 98.0359L142.132 102.115L140.411 102.265L140.236 99.9037L139.933 99.9302C139.865 100.493 139.725 100.976 139.514 101.38C139.314 101.783 139.037 102.102 138.682 102.336C138.327 102.56 137.895 102.694 137.384 102.739ZM137.861 101.027C138.212 100.996 138.513 100.89 138.765 100.707C139.026 100.513 139.231 100.281 139.378 100.011C139.526 99.741 139.629 99.4536 139.688 99.1486C139.757 98.8321 139.78 98.541 139.756 98.2753L139.734 98.0203C139.716 97.8078 139.664 97.5874 139.58 97.3592C139.506 97.1301 139.401 96.9091 139.265 96.6962C139.138 96.4717 138.982 96.2766 138.796 96.1108C138.609 95.9344 138.395 95.8033 138.151 95.7175C137.918 95.6201 137.658 95.584 137.371 95.6091C136.957 95.6453 136.616 95.7929 136.35 96.0518C136.083 96.3107 135.894 96.6538 135.781 97.0812C135.668 97.4981 135.634 97.9721 135.681 98.5034C135.728 99.0453 135.844 99.5117 136.028 99.9025C136.223 100.292 136.473 100.586 136.78 100.784C137.097 100.981 137.457 101.062 137.861 101.027ZM146.31 101.958C145.842 101.999 145.421 101.95 145.044 101.812C144.667 101.663 144.357 101.422 144.114 101.09C143.881 100.757 143.742 100.33 143.697 99.8097C143.659 99.3741 143.706 98.9952 143.838 98.6731C143.981 98.3501 144.209 98.0785 144.522 97.8584C144.834 97.6277 145.228 97.4272 145.706 97.2569C146.193 97.0751 146.757 96.908 147.397 96.7557C147.753 96.6709 148.041 96.5922 148.259 96.5196C148.489 96.446 148.652 96.3514 148.749 96.2359C148.855 96.1087 148.899 95.9336 148.879 95.7105C148.85 95.3811 148.709 95.1097 148.455 94.8964C148.2 94.683 147.818 94.5987 147.308 94.6433C147.011 94.6694 146.723 94.748 146.446 94.8794C146.179 95.0098 145.954 95.1955 145.772 95.4363C145.589 95.6771 145.472 95.9872 145.419 96.3665L143.585 95.9648C143.655 95.5411 143.788 95.1601 143.983 94.8218C144.178 94.4835 144.431 94.1884 144.741 93.9364C145.051 93.6844 145.414 93.4867 145.829 93.3433C146.256 93.1989 146.719 93.1049 147.218 93.0612C147.994 92.9933 148.642 93.065 149.164 93.2764C149.686 93.4877 150.092 93.8483 150.383 94.3582C150.673 94.8575 150.854 95.5163 150.925 96.3345L151.062 97.8965C151.094 98.2578 151.132 98.6346 151.177 99.0268C151.232 99.4075 151.287 99.7935 151.343 100.185C151.408 100.565 151.478 100.933 151.552 101.291L149.751 101.448C149.682 101.155 149.617 100.839 149.555 100.502C149.494 100.165 149.442 99.8157 149.4 99.4554L149.145 99.4777C149.031 99.8945 148.851 100.285 148.605 100.649C148.358 101.013 148.042 101.314 147.656 101.551C147.279 101.777 146.831 101.913 146.31 101.958ZM146.961 100.407C147.174 100.389 147.388 100.333 147.605 100.239C147.822 100.145 148.024 100.015 148.213 99.8482C148.413 99.6809 148.593 99.4777 148.754 99.2388C148.915 98.9998 149.046 98.7207 149.147 98.4014L149.01 97.0161L149.398 97.0464C149.23 97.2109 149.017 97.3473 148.759 97.4556C148.501 97.5638 148.225 97.6522 147.931 97.7208C147.648 97.7884 147.36 97.8671 147.068 97.9569C146.786 98.0351 146.532 98.1322 146.307 98.2483C146.08 98.3538 145.906 98.4976 145.782 98.6797C145.658 98.8512 145.609 99.0803 145.634 99.3673C145.665 99.7285 145.801 100 146.042 100.183C146.294 100.364 146.6 100.439 146.961 100.407ZM156.465 101.054C155.583 101.131 154.909 100.954 154.443 100.524C153.987 100.082 153.715 99.3616 153.628 98.3627L153.278 94.362L152.066 94.468L151.959 92.8713L152.756 92.8015C153.064 92.7746 153.288 92.7068 153.428 92.5981C153.568 92.4789 153.648 92.2952 153.669 92.047L153.74 90.8363L154.904 90.7345L155.065 92.5834L157.265 92.391L157.411 94.0646L155.212 94.257L155.549 98.1143C155.584 98.5074 155.699 98.7864 155.896 98.9513C156.103 99.1152 156.392 99.1809 156.764 99.1483C156.966 99.1307 157.161 99.0922 157.348 99.033C157.545 98.9622 157.724 98.8609 157.884 98.7292L158.051 100.642C157.742 100.776 157.45 100.871 157.177 100.927C156.915 100.993 156.677 101.035 156.465 101.054ZM163.413 100.462C162.733 100.521 162.119 100.479 161.571 100.334C161.033 100.188 160.568 99.9505 160.175 99.6208C159.781 99.2805 159.466 98.8584 159.229 98.3545C159.003 97.8496 158.861 97.2677 158.803 96.6089C158.746 95.9501 158.783 95.3365 158.915 94.7682C159.048 94.1998 159.272 93.6984 159.587 93.2639C159.902 92.8295 160.305 92.4783 160.796 92.2106C161.286 91.9428 161.85 91.781 162.488 91.7252C163.094 91.6722 163.644 91.7258 164.14 91.8858C164.647 92.045 165.077 92.3125 165.431 92.6884C165.795 93.0527 166.082 93.5255 166.294 94.1066C166.504 94.6771 166.622 95.352 166.648 96.1314L160.117 96.751L160.015 95.5874L165.35 95.0725L164.722 95.7859C164.733 95.1747 164.642 94.6847 164.449 94.3162C164.267 93.9466 164.013 93.6797 163.688 93.5154C163.374 93.3502 163.026 93.2843 162.643 93.3177C162.208 93.3559 161.835 93.5062 161.526 93.7688C161.227 94.0199 161.006 94.3711 160.864 94.8226C160.72 95.2634 160.675 95.792 160.729 96.4083C160.81 97.3328 161.073 98.0058 161.516 98.4274C161.971 98.8481 162.559 99.0268 163.282 98.9636C163.59 98.9366 163.852 98.8709 164.068 98.7663C164.283 98.6618 164.46 98.5393 164.598 98.3988C164.734 98.2476 164.838 98.0833 164.908 97.9058C164.988 97.7275 165.042 97.5461 165.069 97.3617L166.872 97.5895C166.81 97.991 166.698 98.3595 166.535 98.695C166.37 99.0199 166.144 99.3074 165.855 99.5575C165.577 99.8067 165.236 100.008 164.832 100.161C164.428 100.314 163.955 100.414 163.413 100.462ZM173.461 99.374L172.805 91.8826L171.275 92.0165L171.12 90.2472C171.62 90.2035 172.021 90.0827 172.325 89.8848C172.629 89.6869 172.807 89.3341 172.859 88.8263L174.58 88.6757L175.501 99.1955L173.461 99.374Z" fill="#045FFD" fill-opacity="0.2"/>
<rect x="90.2806" y="118.697" width="48" height="48" transform="rotate(-5 90.2806 118.697)" fill="#E1ECFF"/>
<rect x="150.052" y="113.467" width="124" height="8" transform="rotate(-5 150.052 113.467)" fill="#E1ECFF"/>
<rect x="151.795" y="133.391" width="124" height="8" transform="rotate(-5 151.795 133.391)" fill="#E1ECFF"/>
<rect x="153.538" y="153.315" width="124" height="8" transform="rotate(-5 153.538 153.315)" fill="#E1ECFF"/>
<rect x="95.5099" y="178.469" width="184" height="8" transform="rotate(-5 95.5099 178.469)" fill="#E1ECFF"/>
<rect x="97.253" y="198.393" width="184" height="8" transform="rotate(-5 97.253 198.393)" fill="#E1ECFF"/>
<rect x="98.9962" y="218.316" width="184" height="8" transform="rotate(-5 98.9962 218.316)" fill="#E1ECFF"/>
<rect x="100.739" y="238.24" width="184" height="8" transform="rotate(-5 100.739 238.24)" fill="#E1ECFF"/>
</g>
<g filter="url(#filter4_ddddd_3390_7606)">
<mask id="path-44-inside-5_3390_7606" fill="white">
<path d="M143 44.5H355V299.5H143V44.5Z"/>
</mask>
<path d="M143 44.5H355V299.5H143V44.5Z" fill="white" shape-rendering="crispEdges"/>
<path d="M147 299.5V44.5H139V299.5H147Z" fill="#045FFD" mask="url(#path-44-inside-5_3390_7606)"/>
<path d="M162.952 67.5V64.156L159.128 56.94H161.544L163.928 62.3H164.008L166.392 56.94H168.776L164.984 64.14V67.5H162.952ZM172.723 67.708C171.891 67.708 171.16 67.5427 170.531 67.212C169.912 66.8707 169.422 66.3747 169.059 65.724C168.707 65.0627 168.531 64.252 168.531 63.292C168.531 62.3107 168.712 61.5 169.075 60.86C169.438 60.2093 169.934 59.724 170.563 59.404C171.192 59.084 171.907 58.924 172.707 58.924C173.518 58.924 174.238 59.0893 174.867 59.42C175.507 59.7507 176.008 60.2467 176.371 60.908C176.734 61.5587 176.915 62.3693 176.915 63.34C176.915 64.3213 176.728 65.1373 176.355 65.788C175.992 66.4387 175.491 66.924 174.851 67.244C174.222 67.5533 173.512 67.708 172.723 67.708ZM172.787 66.172C173.235 66.172 173.614 66.0707 173.923 65.868C174.232 65.6547 174.467 65.34 174.627 64.924C174.798 64.508 174.883 64.012 174.883 63.436C174.883 62.828 174.798 62.3107 174.627 61.884C174.456 61.4467 174.206 61.1107 173.875 60.876C173.544 60.6413 173.139 60.524 172.659 60.524C172.222 60.524 171.843 60.6307 171.523 60.844C171.214 61.0467 170.974 61.3507 170.803 61.756C170.643 62.1613 170.563 62.6627 170.563 63.26C170.563 64.1987 170.76 64.9187 171.155 65.42C171.55 65.9213 172.094 66.172 172.787 66.172ZM181.451 67.708C180.491 67.708 179.765 67.3827 179.275 66.732C178.795 66.0707 178.555 65.0733 178.555 63.74V59.132H180.587V63.516C180.587 64.3587 180.715 64.988 180.971 65.404C181.227 65.8093 181.621 66.012 182.155 66.012C182.464 66.012 182.736 65.9373 182.971 65.788C183.205 65.6387 183.408 65.4253 183.579 65.148C183.749 64.86 183.883 64.5293 183.979 64.156C184.085 63.772 184.149 63.356 184.171 62.908V59.132H186.187V64.044V67.5H184.507L184.555 64.844H184.267C184.128 65.516 183.936 66.0653 183.691 66.492C183.445 66.908 183.136 67.2173 182.763 67.42C182.4 67.612 181.963 67.708 181.451 67.708ZM188.433 67.5V63.292V59.132H190.145L190.097 62.028H190.385C190.481 61.3453 190.63 60.7747 190.833 60.316C191.035 59.8573 191.318 59.516 191.681 59.292C192.043 59.0573 192.491 58.94 193.025 58.94C193.121 58.94 193.227 58.9453 193.345 58.956C193.473 58.9667 193.617 58.9933 193.777 59.036L193.697 61.18C193.526 61.1053 193.35 61.0573 193.169 61.036C192.987 61.004 192.827 60.988 192.689 60.988C192.262 60.988 191.899 61.0947 191.601 61.308C191.302 61.5213 191.057 61.8253 190.865 62.22C190.683 62.6147 190.55 63.0787 190.465 63.612V67.5H188.433ZM198.18 67.5L201.828 56.94H204.788L208.436 67.5H206.244L203.428 58.572H203.204L200.388 67.5H198.18ZM200.132 65.324V63.9H206.772V65.324H200.132ZM209.854 70.14V63.356V59.132H211.566L211.534 61.42L211.806 61.436C211.913 60.9027 212.084 60.4493 212.318 60.076C212.564 59.692 212.873 59.404 213.246 59.212C213.62 59.02 214.062 58.924 214.574 58.924C215.321 58.924 215.95 59.1107 216.462 59.484C216.985 59.8467 217.385 60.364 217.662 61.036C217.94 61.6973 218.078 62.4707 218.078 63.356C218.078 64.188 217.95 64.9347 217.694 65.596C217.438 66.2573 217.06 66.7747 216.558 67.148C216.057 67.5213 215.433 67.708 214.686 67.708C214.142 67.708 213.684 67.6013 213.31 67.388C212.937 67.1747 212.633 66.8813 212.398 66.508C212.164 66.124 211.972 65.6867 211.822 65.196H211.534C211.598 65.4947 211.652 65.7987 211.694 66.108C211.748 66.4067 211.79 66.7 211.822 66.988C211.854 67.276 211.87 67.5533 211.87 67.82V70.14H209.854ZM214.03 66.06C214.446 66.06 214.793 65.948 215.07 65.724C215.358 65.4893 215.577 65.1693 215.726 64.764C215.886 64.348 215.966 63.8733 215.966 63.34C215.966 62.7853 215.886 62.3053 215.726 61.9C215.566 61.4947 215.337 61.18 215.038 60.956C214.75 60.732 214.404 60.62 213.998 60.62C213.646 60.62 213.337 60.7 213.07 60.86C212.804 61.02 212.58 61.2333 212.398 61.5C212.228 61.756 212.094 62.0333 211.998 62.332C211.913 62.6307 211.87 62.924 211.87 63.212V63.484C211.87 63.6973 211.897 63.9213 211.95 64.156C212.014 64.38 212.105 64.6093 212.222 64.844C212.34 65.068 212.484 65.276 212.654 65.468C212.825 65.6493 213.028 65.7933 213.262 65.9C213.497 66.0067 213.753 66.06 214.03 66.06ZM219.87 70.14V63.356V59.132H221.582L221.55 61.42L221.822 61.436C221.929 60.9027 222.099 60.4493 222.334 60.076C222.579 59.692 222.889 59.404 223.262 59.212C223.635 59.02 224.078 58.924 224.59 58.924C225.337 58.924 225.966 59.1107 226.478 59.484C227.001 59.8467 227.401 60.364 227.678 61.036C227.955 61.6973 228.094 62.4707 228.094 63.356C228.094 64.188 227.966 64.9347 227.71 65.596C227.454 66.2573 227.075 66.7747 226.574 67.148C226.073 67.5213 225.449 67.708 224.702 67.708C224.158 67.708 223.699 67.6013 223.326 67.388C222.953 67.1747 222.649 66.8813 222.414 66.508C222.179 66.124 221.987 65.6867 221.838 65.196H221.55C221.614 65.4947 221.667 65.7987 221.71 66.108C221.763 66.4067 221.806 66.7 221.838 66.988C221.87 67.276 221.886 67.5533 221.886 67.82V70.14H219.87ZM224.046 66.06C224.462 66.06 224.809 65.948 225.086 65.724C225.374 65.4893 225.593 65.1693 225.742 64.764C225.902 64.348 225.982 63.8733 225.982 63.34C225.982 62.7853 225.902 62.3053 225.742 61.9C225.582 61.4947 225.353 61.18 225.054 60.956C224.766 60.732 224.419 60.62 224.014 60.62C223.662 60.62 223.353 60.7 223.086 60.86C222.819 61.02 222.595 61.2333 222.414 61.5C222.243 61.756 222.11 62.0333 222.014 62.332C221.929 62.6307 221.886 62.924 221.886 63.212V63.484C221.886 63.6973 221.913 63.9213 221.966 64.156C222.03 64.38 222.121 64.6093 222.238 64.844C222.355 65.068 222.499 65.276 222.67 65.468C222.841 65.6493 223.043 65.7933 223.278 65.9C223.513 66.0067 223.769 66.06 224.046 66.06ZM229.886 67.5V56.156H231.87V67.5H229.886ZM234.104 67.5V59.132H236.12V67.5H234.104ZM235.112 57.836C234.696 57.836 234.382 57.7507 234.168 57.58C233.955 57.3987 233.848 57.1427 233.848 56.812C233.848 56.4707 233.955 56.2147 234.168 56.044C234.392 55.8733 234.707 55.788 235.112 55.788C235.528 55.788 235.843 55.8733 236.056 56.044C236.28 56.2147 236.392 56.4707 236.392 56.812C236.392 57.1427 236.28 57.3987 236.056 57.58C235.843 57.7507 235.528 57.836 235.112 57.836ZM242.13 67.708C241.405 67.708 240.776 67.6013 240.242 67.388C239.709 67.1747 239.272 66.876 238.93 66.492C238.589 66.0973 238.328 65.6387 238.146 65.116C237.976 64.5933 237.89 64.028 237.89 63.42C237.89 62.7693 237.981 62.172 238.162 61.628C238.344 61.084 238.61 60.6093 238.962 60.204C239.314 59.7987 239.746 59.484 240.258 59.26C240.77 59.036 241.362 58.924 242.034 58.924C242.706 58.924 243.293 59.036 243.794 59.26C244.296 59.484 244.701 59.7987 245.01 60.204C245.32 60.5987 245.522 61.068 245.618 61.612L243.746 62.204C243.714 61.8733 243.624 61.5853 243.474 61.34C243.325 61.084 243.122 60.8867 242.866 60.748C242.61 60.6093 242.306 60.54 241.954 60.54C241.624 60.54 241.33 60.604 241.074 60.732C240.829 60.86 240.621 61.052 240.45 61.308C240.28 61.5533 240.152 61.8467 240.066 62.188C239.981 62.5293 239.938 62.9133 239.938 63.34C239.938 63.9373 240.018 64.444 240.178 64.86C240.338 65.276 240.578 65.6013 240.898 65.836C241.229 66.06 241.645 66.172 242.146 66.172C242.573 66.172 242.92 66.092 243.186 65.932C243.464 65.7613 243.672 65.5427 243.81 65.276C243.96 64.9987 244.05 64.7053 244.082 64.396L245.874 64.78C245.821 65.2173 245.698 65.6173 245.506 65.98C245.325 66.332 245.08 66.6413 244.77 66.908C244.461 67.164 244.088 67.3613 243.65 67.5C243.213 67.6387 242.706 67.708 242.13 67.708ZM249.353 67.708C248.884 67.708 248.468 67.6227 248.105 67.452C247.743 67.2707 247.455 67.004 247.241 66.652C247.039 66.3 246.937 65.8627 246.937 65.34C246.937 64.9027 247.017 64.5293 247.177 64.22C247.348 63.9107 247.599 63.66 247.929 63.468C248.26 63.2653 248.671 63.1 249.161 62.972C249.663 62.8333 250.239 62.716 250.889 62.62C251.252 62.5667 251.545 62.5133 251.769 62.46C252.004 62.4067 252.175 62.3267 252.281 62.22C252.399 62.1027 252.457 61.932 252.457 61.708C252.457 61.3773 252.34 61.0947 252.105 60.86C251.871 60.6253 251.497 60.508 250.985 60.508C250.687 60.508 250.393 60.5613 250.105 60.668C249.828 60.7747 249.588 60.94 249.385 61.164C249.183 61.388 249.039 61.6867 248.953 62.06L247.161 61.5C247.268 61.084 247.433 60.716 247.657 60.396C247.881 60.076 248.159 59.804 248.489 59.58C248.82 59.356 249.199 59.1907 249.625 59.084C250.063 58.9773 250.532 58.924 251.033 58.924C251.812 58.924 252.452 59.052 252.953 59.308C253.455 59.564 253.828 59.9587 254.073 60.492C254.319 61.0147 254.441 61.6867 254.441 62.508V64.076C254.441 64.4387 254.447 64.8173 254.457 65.212C254.479 65.596 254.5 65.9853 254.521 66.38C254.553 66.764 254.591 67.1373 254.633 67.5H252.825C252.783 67.2013 252.745 66.8813 252.713 66.54C252.681 66.1987 252.66 65.8467 252.649 65.484H252.393C252.244 65.8893 252.031 66.2627 251.753 66.604C251.476 66.9453 251.135 67.2173 250.729 67.42C250.335 67.612 249.876 67.708 249.353 67.708ZM250.137 66.22C250.351 66.22 250.569 66.1827 250.793 66.108C251.017 66.0333 251.231 65.9213 251.433 65.772C251.647 65.6227 251.844 65.436 252.025 65.212C252.207 64.988 252.361 64.7213 252.489 64.412L252.473 63.02L252.857 63.084C252.676 63.2333 252.452 63.3507 252.185 63.436C251.919 63.5213 251.636 63.5853 251.337 63.628C251.049 63.6707 250.756 63.724 250.457 63.788C250.169 63.8413 249.908 63.916 249.673 64.012C249.439 64.0973 249.252 64.2253 249.113 64.396C248.975 64.556 248.905 64.78 248.905 65.068C248.905 65.4307 249.017 65.7133 249.241 65.916C249.476 66.1187 249.775 66.22 250.137 66.22ZM259.548 67.692C258.663 67.692 258.007 67.4573 257.58 66.988C257.164 66.508 256.956 65.7667 256.956 64.764V60.748H255.74L255.772 59.148H256.572C256.882 59.148 257.111 59.1 257.26 59.004C257.41 58.8973 257.506 58.7213 257.548 58.476L257.724 57.276H258.892V59.132H261.1V60.812H258.892V64.684C258.892 65.0787 258.983 65.3667 259.164 65.548C259.356 65.7293 259.639 65.82 260.012 65.82C260.215 65.82 260.412 65.7987 260.604 65.756C260.807 65.7027 260.994 65.6173 261.164 65.5V67.42C260.844 67.5267 260.546 67.596 260.268 67.628C260.002 67.6707 259.762 67.692 259.548 67.692ZM262.808 67.5V59.132H264.824V67.5H262.808ZM263.816 57.836C263.4 57.836 263.085 57.7507 262.872 57.58C262.658 57.3987 262.552 57.1427 262.552 56.812C262.552 56.4707 262.658 56.2147 262.872 56.044C263.096 55.8733 263.41 55.788 263.816 55.788C264.232 55.788 264.546 55.8733 264.76 56.044C264.984 56.2147 265.096 56.4707 265.096 56.812C265.096 57.1427 264.984 57.3987 264.76 57.58C264.546 57.7507 264.232 57.836 263.816 57.836ZM270.786 67.708C269.954 67.708 269.223 67.5427 268.594 67.212C267.975 66.8707 267.484 66.3747 267.122 65.724C266.77 65.0627 266.594 64.252 266.594 63.292C266.594 62.3107 266.775 61.5 267.138 60.86C267.5 60.2093 267.996 59.724 268.626 59.404C269.255 59.084 269.97 58.924 270.77 58.924C271.58 58.924 272.3 59.0893 272.93 59.42C273.57 59.7507 274.071 60.2467 274.434 60.908C274.796 61.5587 274.977 62.3693 274.977 63.34C274.977 64.3213 274.791 65.1373 274.418 65.788C274.055 66.4387 273.554 66.924 272.914 67.244C272.284 67.5533 271.575 67.708 270.786 67.708ZM270.85 66.172C271.298 66.172 271.676 66.0707 271.986 65.868C272.295 65.6547 272.53 65.34 272.69 64.924C272.86 64.508 272.946 64.012 272.946 63.436C272.946 62.828 272.86 62.3107 272.69 61.884C272.519 61.4467 272.268 61.1107 271.938 60.876C271.607 60.6413 271.202 60.524 270.722 60.524C270.284 60.524 269.906 60.6307 269.586 60.844C269.276 61.0467 269.036 61.3507 268.866 61.756C268.706 62.1613 268.626 62.6627 268.626 63.26C268.626 64.1987 268.823 64.9187 269.218 65.42C269.612 65.9213 270.156 66.172 270.85 66.172ZM276.745 67.5V62.412V59.132H278.441L278.377 61.724H278.665C278.814 61.0947 279.012 60.572 279.257 60.156C279.513 59.74 279.833 59.4307 280.217 59.228C280.612 59.0253 281.076 58.924 281.609 58.924C282.558 58.924 283.278 59.26 283.769 59.932C284.27 60.604 284.521 61.644 284.521 63.052V67.5H282.489V63.26C282.489 62.3533 282.35 61.692 282.073 61.276C281.806 60.8493 281.412 60.636 280.889 60.636C280.43 60.636 280.046 60.78 279.737 61.068C279.428 61.3453 279.188 61.7187 279.017 62.188C278.857 62.6573 278.772 63.1747 278.761 63.74V67.5H276.745Z" fill="#045FFD"/>
<rect x="159" y="79.5" width="48" height="48" fill="#045FFD" fill-opacity="0.2"/>
<rect x="219" y="79.5" width="124" height="8" fill="#045FFD" fill-opacity="0.2"/>
<rect x="219" y="99.5" width="124" height="8" fill="#045FFD" fill-opacity="0.2"/>
<rect x="219" y="119.5" width="124" height="8" fill="#045FFD" fill-opacity="0.2"/>
<rect x="159" y="139.5" width="184" height="8" fill="#045FFD" fill-opacity="0.2"/>
<rect x="159" y="159.5" width="184" height="8" fill="#045FFD" fill-opacity="0.2"/>
<rect x="159" y="179.5" width="184" height="8" fill="#045FFD" fill-opacity="0.2"/>
<rect x="159" y="199.5" width="184" height="8" fill="#045FFD" fill-opacity="0.2"/>
<rect x="159" y="219.5" width="184" height="8" fill="#045FFD" fill-opacity="0.2"/>
<rect x="159" y="239.5" width="184" height="8" fill="#045FFD" fill-opacity="0.2"/>
</g>
<path d="M306 28L307.435 37.8842C307.789 40.3266 309.603 42.3028 312.006 42.8647L319 44.5L312.006 46.1353C309.603 46.6972 307.789 48.6734 307.435 51.1158L306 61L304.565 51.1158C304.211 48.6734 302.397 46.6972 299.994 46.1353L293 44.5L299.994 42.8647C302.397 42.3028 304.211 40.3266 304.565 37.8842L306 28Z" fill="#EDBD14"/>
<path d="M330 45L331.435 54.8842C331.789 57.3266 333.603 59.3028 336.006 59.8647L343 61.5L336.006 63.1353C333.603 63.6972 331.789 65.6734 331.435 68.1158L330 78L328.565 68.1158C328.211 65.6734 326.397 63.6972 323.994 63.1353L317 61.5L323.994 59.8647C326.397 59.3028 328.211 57.3266 328.565 54.8842L330 45Z" fill="#EDBD14"/>
<path d="M330 12L331.435 21.8842C331.789 24.3266 333.603 26.3028 336.006 26.8647L343 28.5L336.006 30.1353C333.603 30.6972 331.789 32.6734 331.435 35.1158L330 45L328.565 35.1158C328.211 32.6734 326.397 30.6972 323.994 30.1353L317 28.5L323.994 26.8647C326.397 26.3028 328.211 24.3266 328.565 21.8842L330 12Z" fill="#EDBD14"/>
</g>
<defs>
<filter id="filter0_dddd_3390_7606" x="177.47" y="86.0293" width="347.06" height="461.939" filterUnits="userSpaceOnUse" color-interpolation-filters="sRGB">
<feFlood flood-opacity="0" result="BackgroundImageFix"/>
<feColorMatrix in="SourceAlpha" type="matrix" values="0 0 0 0 0 0 0 0 0 0 0 0 0 0 0 0 0 0 127 0" result="hardAlpha"/>
<feOffset dy="7"/>
<feGaussianBlur stdDeviation="8"/>
<feColorMatrix type="matrix" values="0 0 0 0 0 0 0 0 0 0 0 0 0 0 0 0 0 0 0.1 0"/>
<feBlend mode="normal" in2="BackgroundImageFix" result="effect1_dropShadow_3390_7606"/>
<feColorMatrix in="SourceAlpha" type="matrix" values="0 0 0 0 0 0 0 0 0 0 0 0 0 0 0 0 0 0 127 0" result="hardAlpha"/>
<feOffset dy="29"/>
<feGaussianBlur stdDeviation="14.5"/>
<feColorMatrix type="matrix" values="0 0 0 0 0 0 0 0 0 0 0 0 0 0 0 0 0 0 0.09 0"/>
<feBlend mode="normal" in2="effect1_dropShadow_3390_7606" result="effect2_dropShadow_3390_7606"/>
<feColorMatrix in="SourceAlpha" type="matrix" values="0 0 0 0 0 0 0 0 0 0 0 0 0 0 0 0 0 0 127 0" result="hardAlpha"/>
<feOffset dy="66"/>
<feGaussianBlur stdDeviation="20"/>
<feColorMatrix type="matrix" values="0 0 0 0 0 0 0 0 0 0 0 0 0 0 0 0 0 0 0.05 0"/>
<feBlend mode="normal" in2="effect2_dropShadow_3390_7606" result="effect3_dropShadow_3390_7606"/>
<feColorMatrix in="SourceAlpha" type="matrix" values="0 0 0 0 0 0 0 0 0 0 0 0 0 0 0 0 0 0 127 0" result="hardAlpha"/>
<feOffset dy="118"/>
<feGaussianBlur stdDeviation="23.5"/>
<feColorMatrix type="matrix" values="0 0 0 0 0 0 0 0 0 0 0 0 0 0 0 0 0 0 0.01 0"/>
<feBlend mode="normal" in2="effect3_dropShadow_3390_7606" result="effect4_dropShadow_3390_7606"/>
<feBlend mode="normal" in="SourceGraphic" in2="effect4_dropShadow_3390_7606" result="shape"/>
</filter>
<filter id="filter1_dddd_3390_7606" x="-26.5298" y="86.0303" width="347.06" height="461.939" filterUnits="userSpaceOnUse" color-interpolation-filters="sRGB">
<feFlood flood-opacity="0" result="BackgroundImageFix"/>
<feColorMatrix in="SourceAlpha" type="matrix" values="0 0 0 0 0 0 0 0 0 0 0 0 0 0 0 0 0 0 127 0" result="hardAlpha"/>
<feOffset dy="7"/>
<feGaussianBlur stdDeviation="8"/>
<feColorMatrix type="matrix" values="0 0 0 0 0 0 0 0 0 0 0 0 0 0 0 0 0 0 0.1 0"/>
<feBlend mode="normal" in2="BackgroundImageFix" result="effect1_dropShadow_3390_7606"/>
<feColorMatrix in="SourceAlpha" type="matrix" values="0 0 0 0 0 0 0 0 0 0 0 0 0 0 0 0 0 0 127 0" result="hardAlpha"/>
<feOffset dy="29"/>
<feGaussianBlur stdDeviation="14.5"/>
<feColorMatrix type="matrix" values="0 0 0 0 0 0 0 0 0 0 0 0 0 0 0 0 0 0 0.09 0"/>
<feBlend mode="normal" in2="effect1_dropShadow_3390_7606" result="effect2_dropShadow_3390_7606"/>
<feColorMatrix in="SourceAlpha" type="matrix" values="0 0 0 0 0 0 0 0 0 0 0 0 0 0 0 0 0 0 127 0" result="hardAlpha"/>
<feOffset dy="66"/>
<feGaussianBlur stdDeviation="20"/>
<feColorMatrix type="matrix" values="0 0 0 0 0 0 0 0 0 0 0 0 0 0 0 0 0 0 0.05 0"/>
<feBlend mode="normal" in2="effect2_dropShadow_3390_7606" result="effect3_dropShadow_3390_7606"/>
<feColorMatrix in="SourceAlpha" type="matrix" values="0 0 0 0 0 0 0 0 0 0 0 0 0 0 0 0 0 0 127 0" result="hardAlpha"/>
<feOffset dy="118"/>
<feGaussianBlur stdDeviation="23.5"/>
<feColorMatrix type="matrix" values="0 0 0 0 0 0 0 0 0 0 0 0 0 0 0 0 0 0 0.01 0"/>
<feBlend mode="normal" in2="effect3_dropShadow_3390_7606" result="effect4_dropShadow_3390_7606"/>
<feBlend mode="normal" in="SourceGraphic" in2="effect4_dropShadow_3390_7606" result="shape"/>
</filter>
<filter id="filter2_dddd_3390_7606" x="146.291" y="57.7461" width="327.418" height="446.507" filterUnits="userSpaceOnUse" color-interpolation-filters="sRGB">
<feFlood flood-opacity="0" result="BackgroundImageFix"/>
<feColorMatrix in="SourceAlpha" type="matrix" values="0 0 0 0 0 0 0 0 0 0 0 0 0 0 0 0 0 0 127 0" result="hardAlpha"/>
<feOffset dy="7"/>
<feGaussianBlur stdDeviation="8"/>
<feColorMatrix type="matrix" values="0 0 0 0 0 0 0 0 0 0 0 0 0 0 0 0 0 0 0.1 0"/>
<feBlend mode="normal" in2="BackgroundImageFix" result="effect1_dropShadow_3390_7606"/>
<feColorMatrix in="SourceAlpha" type="matrix" values="0 0 0 0 0 0 0 0 0 0 0 0 0 0 0 0 0 0 127 0" result="hardAlpha"/>
<feOffset dy="29"/>
<feGaussianBlur stdDeviation="14.5"/>
<feColorMatrix type="matrix" values="0 0 0 0 0 0 0 0 0 0 0 0 0 0 0 0 0 0 0.09 0"/>
<feBlend mode="normal" in2="effect1_dropShadow_3390_7606" result="effect2_dropShadow_3390_7606"/>
<feColorMatrix in="SourceAlpha" type="matrix" values="0 0 0 0 0 0 0 0 0 0 0 0 0 0 0 0 0 0 127 0" result="hardAlpha"/>
<feOffset dy="66"/>
<feGaussianBlur stdDeviation="20"/>
<feColorMatrix type="matrix" values="0 0 0 0 0 0 0 0 0 0 0 0 0 0 0 0 0 0 0.05 0"/>
<feBlend mode="normal" in2="effect2_dropShadow_3390_7606" result="effect3_dropShadow_3390_7606"/>
<feColorMatrix in="SourceAlpha" type="matrix" values="0 0 0 0 0 0 0 0 0 0 0 0 0 0 0 0 0 0 127 0" result="hardAlpha"/>
<feOffset dy="118"/>
<feGaussianBlur stdDeviation="23.5"/>
<feColorMatrix type="matrix" values="0 0 0 0 0 0 0 0 0 0 0 0 0 0 0 0 0 0 0.01 0"/>
<feBlend mode="normal" in2="effect3_dropShadow_3390_7606" result="effect4_dropShadow_3390_7606"/>
<feBlend mode="normal" in="SourceGraphic" in2="effect4_dropShadow_3390_7606" result="shape"/>
</filter>
<filter id="filter3_dddd_3390_7606" x="24.291" y="57.7476" width="327.418" height="446.507" filterUnits="userSpaceOnUse" color-interpolation-filters="sRGB">
<feFlood flood-opacity="0" result="BackgroundImageFix"/>
<feColorMatrix in="SourceAlpha" type="matrix" values="0 0 0 0 0 0 0 0 0 0 0 0 0 0 0 0 0 0 127 0" result="hardAlpha"/>
<feOffset dy="7"/>
<feGaussianBlur stdDeviation="8"/>
<feColorMatrix type="matrix" values="0 0 0 0 0 0 0 0 0 0 0 0 0 0 0 0 0 0 0.1 0"/>
<feBlend mode="normal" in2="BackgroundImageFix" result="effect1_dropShadow_3390_7606"/>
<feColorMatrix in="SourceAlpha" type="matrix" values="0 0 0 0 0 0 0 0 0 0 0 0 0 0 0 0 0 0 127 0" result="hardAlpha"/>
<feOffset dy="29"/>
<feGaussianBlur stdDeviation="14.5"/>
<feColorMatrix type="matrix" values="0 0 0 0 0 0 0 0 0 0 0 0 0 0 0 0 0 0 0.09 0"/>
<feBlend mode="normal" in2="effect1_dropShadow_3390_7606" result="effect2_dropShadow_3390_7606"/>
<feColorMatrix in="SourceAlpha" type="matrix" values="0 0 0 0 0 0 0 0 0 0 0 0 0 0 0 0 0 0 127 0" result="hardAlpha"/>
<feOffset dy="66"/>
<feGaussianBlur stdDeviation="20"/>
<feColorMatrix type="matrix" values="0 0 0 0 0 0 0 0 0 0 0 0 0 0 0 0 0 0 0.05 0"/>
<feBlend mode="normal" in2="effect2_dropShadow_3390_7606" result="effect3_dropShadow_3390_7606"/>
<feColorMatrix in="SourceAlpha" type="matrix" values="0 0 0 0 0 0 0 0 0 0 0 0 0 0 0 0 0 0 127 0" result="hardAlpha"/>
<feOffset dy="118"/>
<feGaussianBlur stdDeviation="23.5"/>
<feColorMatrix type="matrix" values="0 0 0 0 0 0 0 0 0 0 0 0 0 0 0 0 0 0 0.01 0"/>
<feBlend mode="normal" in2="effect3_dropShadow_3390_7606" result="effect4_dropShadow_3390_7606"/>
<feBlend mode="normal" in="SourceGraphic" in2="effect4_dropShadow_3390_7606" result="shape"/>
</filter>
<filter id="filter4_ddddd_3390_7606" x="83" y="-7.5" width="332" height="472" filterUnits="userSpaceOnUse" color-interpolation-filters="sRGB">
<feFlood flood-opacity="0" result="BackgroundImageFix"/>
<feColorMatrix in="SourceAlpha" type="matrix" values="0 0 0 0 0 0 0 0 0 0 0 0 0 0 0 0 0 0 127 0" result="hardAlpha"/>
<feOffset dy="7"/>
<feGaussianBlur stdDeviation="8"/>
<feColorMatrix type="matrix" values="0 0 0 0 0 0 0 0 0 0 0 0 0 0 0 0 0 0 0.1 0"/>
<feBlend mode="normal" in2="BackgroundImageFix" result="effect1_dropShadow_3390_7606"/>
<feColorMatrix in="SourceAlpha" type="matrix" values="0 0 0 0 0 0 0 0 0 0 0 0 0 0 0 0 0 0 127 0" result="hardAlpha"/>
<feOffset dy="29"/>
<feGaussianBlur stdDeviation="14.5"/>
<feColorMatrix type="matrix" values="0 0 0 0 0 0 0 0 0 0 0 0 0 0 0 0 0 0 0.09 0"/>
<feBlend mode="normal" in2="effect1_dropShadow_3390_7606" result="effect2_dropShadow_3390_7606"/>
<feColorMatrix in="SourceAlpha" type="matrix" values="0 0 0 0 0 0 0 0 0 0 0 0 0 0 0 0 0 0 127 0" result="hardAlpha"/>
<feOffset dy="66"/>
<feGaussianBlur stdDeviation="20"/>
<feColorMatrix type="matrix" values="0 0 0 0 0 0 0 0 0 0 0 0 0 0 0 0 0 0 0.05 0"/>
<feBlend mode="normal" in2="effect2_dropShadow_3390_7606" result="effect3_dropShadow_3390_7606"/>
<feColorMatrix in="SourceAlpha" type="matrix" values="0 0 0 0 0 0 0 0 0 0 0 0 0 0 0 0 0 0 127 0" result="hardAlpha"/>
<feOffset dy="118"/>
<feGaussianBlur stdDeviation="23.5"/>
<feColorMatrix type="matrix" values="0 0 0 0 0 0 0 0 0 0 0 0 0 0 0 0 0 0 0.01 0"/>
<feBlend mode="normal" in2="effect3_dropShadow_3390_7606" result="effect4_dropShadow_3390_7606"/>
<feColorMatrix in="SourceAlpha" type="matrix" values="0 0 0 0 0 0 0 0 0 0 0 0 0 0 0 0 0 0 127 0" result="hardAlpha"/>
<feOffset dy="8"/>
<feGaussianBlur stdDeviation="30"/>
<feComposite in2="hardAlpha" operator="out"/>
<feColorMatrix type="matrix" values="0 0 0 0 0.0156863 0 0 0 0 0.372549 0 0 0 0 0.992157 0 0 0 0.2 0"/>
<feBlend mode="normal" in2="effect4_dropShadow_3390_7606" result="effect5_dropShadow_3390_7606"/>
<feBlend mode="normal" in="SourceGraphic" in2="effect5_dropShadow_3390_7606" result="shape"/>
</filter>
<radialGradient id="paint0_radial_3390_7606" cx="0" cy="0" r="1" gradientUnits="userSpaceOnUse" gradientTransform="translate(249 -1100.5) rotate(90) scale(1341.5 2783.61)">
<stop stop-color="#585B5F"/>
<stop offset="1" stop-color="#383A3D"/>
</radialGradient>
<clipPath id="clip0_3390_7606">
<rect y="0.5" width="498" height="240" rx="12" fill="white"/>
</clipPath>
</defs>
</svg>
