
<svg width="241" height="178" viewBox="0 0 241 178" fill="none" xmlns="http://www.w3.org/2000/svg">
<g opacity="0.06">
<circle cx="122.672" cy="88.675" r="75.0723" transform="rotate(-10.2397 122.672 88.675)" stroke="white" strokeWidth="2.50241"/>
<circle cx="122.677" cy="88.673" r="68.3992" transform="rotate(-10.2397 122.677 88.673)" stroke="white" strokeWidth="2.50241" stroke-dasharray="3.34 3.34"/>
<mask id="path-3-inside-1_3654_38713" fill="white">
<rect x="37.9856" y="77.3718" width="160.988" height="55.6924" rx="0.834137" transform="rotate(-10.2397 37.9856 77.3718)"/>
</mask>
<rect x="37.9856" y="77.3718" width="160.988" height="55.6924" rx="0.834137" transform="rotate(-10.2397 37.9856 77.3718)" fill="#1E1E1E"/>
<rect x="37.9856" y="77.3718" width="160.988" height="55.6924" rx="0.834137" transform="rotate(-10.2397 37.9856 77.3718)" stroke="white" strokeWidth="5.00482" mask="url(#path-3-inside-1_3654_38713)"/>
<path d="M63.834 115.734L58.4134 85.7269L64.2184 84.6783L69.6391 114.685L63.834 115.734ZM82.6578 112.334L77.2371 82.3265L83.0422 81.2779L88.4628 111.285L82.6578 112.334ZM65.1685 102.138L64.2432 97.0154L81.0181 93.9851L81.9434 99.1072L65.1685 102.138ZM94.5967 110.177L89.1761 80.1698L94.9811 79.1212L100.402 109.128L94.5967 110.177ZM108.561 94.6955L107.744 90.171L114.702 88.9141C116.124 88.6571 117.156 88.1035 117.796 87.2533C118.459 86.3695 118.675 85.2874 118.443 84.0068C118.233 82.8401 117.659 81.9446 116.724 81.3202C115.812 80.6622 114.644 80.4617 113.221 80.7188L106.264 81.9756L105.408 77.2376L112.878 75.8883C114.813 75.5387 116.575 75.617 118.165 76.1232C119.779 76.5957 121.102 77.4145 122.135 78.5796C123.197 79.7395 123.882 81.1731 124.19 82.8805C124.509 84.6448 124.374 86.256 123.785 87.714C123.22 89.1385 122.264 90.3543 120.918 91.3615C119.567 92.3402 117.909 93.0069 115.946 93.3616L108.561 94.6955ZM106.56 108.016L101.139 78.0087L106.944 76.9601L112.365 106.967L106.56 108.016ZM122.951 105.055L110.704 93.8677L115.739 91.2392L129.994 103.783L122.951 105.055ZM133.279 103.189L127.859 73.182L133.664 72.1334L139.084 102.14L133.279 103.189ZM137.548 102.418L136.622 97.2959L153.227 94.2964L154.152 99.4185L137.548 102.418ZM135.227 89.57L134.332 84.6186L149.443 81.8891L150.337 86.8404L135.227 89.57ZM133.052 77.5331L132.127 72.4109L148.518 69.45L149.443 74.5722L133.052 77.5331ZM162.926 97.8335L161.993 92.6687L169.634 91.2885C171.569 90.9389 173.19 90.2347 174.497 89.1758C175.799 88.0884 176.715 86.7329 177.245 85.1092C177.803 83.4804 177.899 81.6558 177.534 79.6354C177.179 77.6719 176.458 76.0391 175.371 74.7369C174.278 73.4063 172.935 72.4736 171.339 71.939C169.739 71.376 167.986 71.2666 166.079 71.611L158.311 73.0144L157.378 67.8496L165.231 66.4308C167.451 66.0299 169.567 66.0297 171.578 66.4303C173.619 66.8257 175.459 67.5805 177.1 68.6945C178.765 69.7749 180.146 71.1563 181.243 72.8387C182.369 74.516 183.127 76.4359 183.518 78.5986C183.908 80.7613 183.872 82.8394 183.41 84.833C182.97 86.793 182.177 88.5819 181.029 90.1996C179.877 91.789 178.414 93.1258 176.641 94.21C174.896 95.2892 172.929 96.0266 170.737 96.4225L162.926 97.8335ZM158.957 98.5506L153.536 68.5436L159.341 67.4949L164.762 97.5019L158.957 98.5506Z" fill="white"/>
<path d="M51.4154 62.5581L1.75391 71.5292L24.187 92.4821L11.0957 123.243L45.5715 117.015" stroke="white" strokeWidth="2.50241" stroke-linejoin="round"/>
<path d="M179.875 39.3527L229.536 30.3817L215.852 57.859L238.878 82.0953L204.402 88.3232" stroke="white" strokeWidth="2.50241" stroke-linejoin="round"/>
</g>
</svg>
