
<svg width="733" height="832" viewBox="0 0 733 832" fill="none" xmlns="http://www.w3.org/2000/svg">
<g clipPath="url(#clip0_2387_217493)">
<rect width="733" height="832" fill="url(#paint0_linear_2387_217493)"/>
<path d="M-84 505.133V872C-84 872.552 -83.5523 873 -83 873H815C815.552 873 816 872.552 816 872V447.983C816 447.003 814.775 446.516 814.202 447.312C798.335 469.366 680.082 627.532 566 607.742C459.365 589.244 443.349 414.271 335.5 408.719C241.271 403.869 219.747 571.061 128.5 544.887C57.3043 524.464 76.221 374.596 4 390.126C-47.6284 401.228 -82.8208 501.566 -83.9709 504.882C-84.0071 504.986 -84 505.022 -84 505.133Z" fill="url(#paint1_linear_2387_217493)"/>
<circle cx="-125" cy="243" r="441" fill="url(#paint2_linear_2387_217493)"/>
<g filter="url(#filter0_b_2387_217493)">
<rect width="733" height="832" fill="#0F174F" fillOpacity="0.57"/>
</g>
</g>
<defs>
<filter id="filter0_b_2387_217493" x="-8.3" y="-8.3" width="749.6" height="848.6" filterUnits="userSpaceOnUse" color-interpolation-filters="sRGB">
<feFlood flood-opacity="0" result="BackgroundImageFix"/>
<feGaussianBlur in="BackgroundImageFix" stdDeviation="4.15"/>
<feComposite in2="SourceAlpha" operator="in" result="effect1_backgroundBlur_2387_217493"/>
<feBlend mode="normal" in="SourceGraphic" in2="effect1_backgroundBlur_2387_217493" result="shape"/>
</filter>
<linearGradient id="paint0_linear_2387_217493" x1="516" y1="-8.4355e-08" x2="513.145" y2="718.67" gradientUnits="userSpaceOnUse">
<stop offset="0.115682" stop-color="#090D2D"/>
<stop offset="0.313279" stop-color="#082366"/>
<stop offset="0.455861" stop-color="#063FAB"/>
<stop offset="0.614839" stop-color="#5D6EE3"/>
<stop offset="0.751298" stop-color="#8886FE"/>
</linearGradient>
<linearGradient id="paint1_linear_2387_217493" x1="218" y1="181.5" x2="574.613" y2="1053.27" gradientUnits="userSpaceOnUse">
<stop offset="0.273742" stop-color="#090D2D"/>
<stop offset="0.606246" stop-color="#18257B"/>
<stop offset="0.83882" stop-color="#4350B8"/>
<stop offset="1" stop-color="#6472E7"/>
</linearGradient>
<linearGradient id="paint2_linear_2387_217493" x1="-183.5" y1="56" x2="420" y2="380.5" gradientUnits="userSpaceOnUse">
<stop offset="0.25764" stop-color="#090D2D"/>
<stop offset="0.406755" stop-color="#081D55"/>
<stop offset="0.523853" stop-color="#072C7C"/>
<stop offset="0.64367" stop-color="#063FAB"/>
<stop offset="0.758812" stop-color="#4B64D7"/>
<stop offset="0.868196" stop-color="#8886FE"/>
</linearGradient>
<clipPath id="clip0_2387_217493">
<rect width="733" height="832" fill="white"/>
</clipPath>
</defs>
</svg>
