
<svg width="447" height="271" viewBox="0 0 447 271" fill="none" xmlns="http://www.w3.org/2000/svg">
<g style="mix-blend-mode:luminosity" opacity="0.3">
<path opacity="0.3" fill-rule="evenodd" clip-rule="evenodd" d="M348.447 157.948L348.441 157.991H330.603C318.657 157.991 308.974 167.675 308.974 179.621C308.974 191.567 318.657 201.25 330.603 201.25H352.534C364.341 201.412 373.862 211.033 373.862 222.878C373.862 234.823 364.178 244.507 352.233 244.507H296.973C274.879 261.108 247.413 270.946 217.649 270.946C153.701 270.946 100.36 225.536 88.1129 165.203H56.6295C44.6838 165.203 35 155.519 35 143.573C35 131.627 44.6838 121.944 56.6295 121.944H77.9847C78.0761 121.945 78.1677 121.945 78.2594 121.945H116.712C128.657 121.945 138.341 112.261 138.341 100.316C138.341 88.3702 128.657 78.6864 116.712 78.6864H99.8802C99.8814 78.6842 99.8825 78.682 99.8836 78.6798H92.6792C80.7336 78.6798 71.0497 68.9959 71.0497 57.0503C71.0497 45.1047 80.7336 35.4208 92.6792 35.4208H135.231C157.83 17.3744 186.48 6.58594 217.649 6.58594C282.48 6.58594 336.41 53.26 347.669 114.839C348.379 114.769 349.1 114.732 349.829 114.732H388.281C400.227 114.732 409.911 124.416 409.911 136.362C409.911 148.308 400.227 157.991 388.281 157.991H349.829C349.365 157.991 348.904 157.977 348.447 157.948Z" fill="#2B2E30"/>
<rect opacity="0.3" x="385.211" y="201.727" width="57.6786" height="43.2589" rx="21.6295" fill="#1A1B1C"/>
<rect opacity="0.3" x="4.10938" y="36.9688" width="57.6786" height="43.2589" rx="21.6295" fill="#1A1B1C"/>
<rect x="130.719" y="38.4922" width="182.824" height="217.768" rx="15.1931" fill="#404245"/>
<rect x="135.781" y="56.2734" width="151.931" height="191.829" rx="10.1287" transform="rotate(-3.65398 135.781 56.2734)" fill="#585B5F"/>
<path d="M207.695 14.6867C207.695 6.57544 214.271 0 222.382 0V0C230.493 0 237.069 6.57545 237.069 14.6867V24.8154H207.695V14.6867Z" fill="#4A4C4F"/>
<circle cx="222.381" cy="12.6618" r="6.58368" fill="#888B91"/>
<rect x="146.422" y="48.1094" width="151.931" height="180.798" rx="10.1287" fill="#676A6F"/>
<path d="M261.123 217.772C250.995 208.403 182.288 226.215 155.531 228.663L281.128 228.663C281.128 228.663 271.252 227.141 261.123 217.772Z" fill="#7D8187"/>
<rect x="207.695" y="20.2578" width="29.3734" height="4.55793" fill="#3E3F42"/>
<path d="M157.562 50.1343C157.562 36.1495 168.899 24.8125 182.884 24.8125H261.889C275.873 24.8125 287.21 36.1495 287.21 50.1343V53.173C287.21 54.8512 285.85 56.2116 284.172 56.2116H160.601C158.923 56.2116 157.562 54.8512 157.562 53.173V50.1343Z" fill="#4A4C4F"/>
<path d="M358.98 52.9217C358.907 52.9243 358.846 52.8672 358.843 52.7943C358.841 52.7214 358.898 52.6603 358.97 52.6577L358.98 52.9217ZM361.541 51.3397C361.2 51.5975 360.665 51.985 360.171 52.3102C359.923 52.4726 359.684 52.6209 359.482 52.7298C359.381 52.7842 359.288 52.83 359.206 52.8628C359.128 52.8944 359.049 52.9193 358.98 52.9217L358.97 52.6577C358.991 52.657 359.035 52.647 359.108 52.6179C359.177 52.59 359.261 52.5493 359.357 52.4974C359.549 52.3937 359.781 52.2501 360.025 52.0894C360.514 51.7684 361.043 51.3845 361.381 51.129L361.541 51.3397Z" fill="#999999"/>
<ellipse cx="6.44452" cy="2.75504" rx="6.44452" ry="2.75504" transform="matrix(-0.969061 0.246823 0.246823 0.969061 368.906 44.5391)" fill="#999999"/>
<ellipse cx="3.08189" cy="5.37128" rx="3.08189" ry="5.37128" transform="matrix(-0.89658 0.442881 0.442881 0.89658 361.102 36.9688)" fill="#999999"/>
<ellipse cx="1.23275" cy="1.05665" rx="1.23275" ry="1.05665" transform="matrix(-1 0 0 1 369.914 45.25)" fill="#7F7F7F"/>
<path d="M364.395 52.4183C364.323 52.4326 364.254 52.3862 364.239 52.3147C364.225 52.2431 364.272 52.1735 364.343 52.1592L364.395 52.4183ZM366.666 50.4427C366.371 50.7522 365.907 51.2211 365.471 51.6221C365.253 51.8224 365.041 52.0074 364.86 52.1475C364.769 52.2175 364.684 52.2778 364.609 52.3235C364.537 52.3673 364.463 52.4047 364.395 52.4183L364.343 52.1592C364.363 52.1551 364.405 52.1381 364.472 52.0977C364.536 52.0591 364.612 52.0053 364.698 51.9385C364.871 51.8051 365.077 51.6258 365.292 51.4277C365.722 51.0318 366.182 50.5673 366.475 50.2605L366.666 50.4427Z" fill="#999999"/>
<path d="M362.629 52.7698C362.558 52.7841 362.488 52.7377 362.474 52.6662C362.46 52.5947 362.506 52.5251 362.577 52.5108L362.629 52.7698ZM364.9 50.7942C364.606 51.1038 364.141 51.5727 363.705 51.9736C363.488 52.1739 363.275 52.359 363.094 52.4991C363.003 52.5691 362.919 52.6294 362.844 52.675C362.771 52.7188 362.697 52.7563 362.629 52.7698L362.577 52.5108C362.598 52.5067 362.64 52.4897 362.706 52.4492C362.77 52.4106 362.846 52.3568 362.933 52.2901C363.105 52.1567 363.311 51.9774 363.527 51.7793C363.957 51.3833 364.417 50.9188 364.709 50.612L364.9 50.7942Z" fill="#999999"/>
<path d="M360.69 53.092C360.617 53.0987 360.553 53.0453 360.546 52.9727C360.539 52.9 360.593 52.8357 360.665 52.829L360.69 53.092ZM363.156 51.3663C362.83 51.6431 362.319 52.0605 361.843 52.4135C361.606 52.5898 361.375 52.7515 361.18 52.8717C361.083 52.9318 360.992 52.9828 360.913 53.0203C360.836 53.0563 360.758 53.0857 360.69 53.092L360.665 52.829C360.686 52.8271 360.73 52.8146 360.8 52.7813C360.867 52.7496 360.949 52.7042 361.042 52.6468C361.227 52.5323 361.451 52.3757 361.686 52.2013C362.155 51.8529 362.662 51.4393 362.985 51.165L363.156 51.3663Z" fill="#999999"/>
<ellipse cx="3.08189" cy="5.37128" rx="3.08189" ry="5.37128" transform="matrix(-1 0 0 1 367.797 37.1484)" fill="#CCCCCC"/>
<path d="M237.07 136.39C242.627 136.853 247.537 138.604 253.285 138.546C267.108 138.409 285.149 135.299 294.342 123.729C300.874 115.507 306.219 100.81 305.205 90.3011C304.506 83.0581 295.256 71.2548 286.953 73.2475C281.903 74.4594 277.74 78.9959 278.526 84.2705C280.285 96.0836 293.162 100.613 303.368 102.123C318.408 104.348 337.255 94.7848 345.542 82.3534C350.55 74.8412 352.811 67.5689 352.811 58.75" stroke="#98999A" strokeWidth="1.51931" strokeLinecap="round" stroke-dasharray="3.04 3.04"/>
<circle cx="331.012" cy="181.051" r="2.29386" stroke="#D9D9D9" strokeWidth="0.983084"/>
<circle cx="19.8056" cy="164.595" r="2.53219" fill="#D9D9D9"/>
<circle cx="403.688" cy="154.462" r="2.53219" fill="#D9D9D9"/>
<path d="M105.85 170.721C105.85 170.413 106.099 170.164 106.407 170.164V170.164C106.714 170.164 106.964 170.413 106.964 170.721V173.507C106.964 173.814 106.714 174.064 106.407 174.064V174.064C106.099 174.064 105.85 173.814 105.85 173.507V170.721ZM105.85 177.963C105.85 177.656 106.099 177.406 106.407 177.406V177.406C106.714 177.406 106.964 177.656 106.964 177.963V180.749C106.964 181.056 106.714 181.306 106.407 181.306V181.306C106.099 181.306 105.85 181.056 105.85 180.749V177.963ZM108.078 175.735C108.078 175.427 108.327 175.178 108.635 175.178H111.42C111.728 175.178 111.978 175.427 111.978 175.735V175.735C111.978 176.043 111.728 176.292 111.42 176.292H108.635C108.327 176.292 108.078 176.043 108.078 175.735V175.735ZM100.836 175.735C100.836 175.427 101.085 175.178 101.393 175.178H104.178C104.486 175.178 104.736 175.427 104.736 175.735V175.735C104.736 176.043 104.486 176.292 104.178 176.292H101.393C101.085 176.292 100.836 176.043 100.836 175.735V175.735Z" fill="#D9D9D9"/>
<path d="M109.256 45.2259C109.605 44.9159 110.138 44.9469 110.448 45.295V45.295C110.758 45.6431 110.727 46.1765 110.379 46.4864L107.227 49.2924C106.879 49.6024 106.346 49.5715 106.036 49.2234V49.2234C105.726 48.8753 105.757 48.3418 106.105 48.0319L109.256 45.2259ZM101.063 52.5215C101.411 52.2115 101.944 52.2425 102.254 52.5906V52.5906C102.564 52.9387 102.533 53.4721 102.185 53.782L99.0339 56.5881C98.6858 56.898 98.1523 56.8671 97.8424 56.519V56.519C97.5325 56.1709 97.5634 55.6374 97.9115 55.3275L101.063 52.5215ZM105.829 52.7978C106.177 52.4879 106.71 52.5188 107.02 52.8669L109.826 56.0183C110.136 56.3664 110.105 56.8998 109.757 57.2097V57.2097C109.409 57.5197 108.876 57.4888 108.566 57.1407L105.76 53.9893C105.45 53.6412 105.481 53.1077 105.829 52.7978V52.7978ZM98.5332 44.6042C98.8813 44.2943 99.4147 44.3252 99.7246 44.6733L102.531 47.8247C102.841 48.1728 102.81 48.7062 102.462 49.0161V49.0161C102.113 49.3261 101.58 49.2952 101.27 48.9471L98.4641 45.7957C98.1541 45.4476 98.1851 44.9141 98.5332 44.6042V44.6042Z" fill="#D9D9D9"/>
</g>
</svg>
