
<svg width="640" height="185" viewBox="0 0 640 185" fill="none" xmlns="http://www.w3.org/2000/svg">
<g style="mix-blend-mode:luminosity" opacity="0.3">
<g style="mix-blend-mode:luminosity" opacity="0.3">
<path opacity="0.3" fill-rule="evenodd" clip-rule="evenodd" d="M232.574 105.904L232.579 105.934H245.06C253.418 105.934 260.193 112.709 260.193 121.067C260.193 129.425 253.418 136.201 245.06 136.201H229.772C221.486 136.284 214.794 143.027 214.794 151.333C214.794 159.691 221.57 166.467 229.928 166.467H268.59C284.049 178.081 303.265 184.964 324.089 184.964C368.831 184.964 406.152 153.192 414.721 110.98H436.749C445.107 110.98 451.883 104.205 451.883 95.8466C451.883 87.4886 445.107 80.7132 436.749 80.7132H421.772C421.721 80.7137 421.669 80.7139 421.617 80.7139H394.713C386.355 80.7139 379.579 73.9385 379.579 65.5805C379.579 57.2226 386.355 50.4471 394.713 50.4471H406.489C406.488 50.4455 406.487 50.444 406.486 50.4424H411.529C419.887 50.4424 426.662 43.6669 426.662 35.309C426.662 26.951 419.887 20.1756 411.529 20.1756H381.755C365.943 7.54861 345.898 0 324.089 0C278.729 0 240.996 32.6571 233.118 75.7426C232.621 75.6932 232.116 75.6679 231.605 75.6679H204.701C196.343 75.6679 189.568 82.4434 189.568 90.8013C189.568 99.1593 196.343 105.935 204.701 105.935H218.001C218.053 105.934 218.104 105.934 218.156 105.934H231.76C232.033 105.931 232.305 105.921 232.574 105.904Z" fill="#7A7A7A"/>
<rect opacity="0.3" width="40.3558" height="30.2668" rx="15.1334" transform="matrix(-1 0 0 1 206.859 136.531)" fill="#1A1B1C"/>
<rect opacity="0.3" width="40.3558" height="30.2668" rx="15.1334" transform="matrix(-1 0 0 1 473.5 21.2578)" fill="#1A1B1C"/>
</g>
<path d="M389.095 172.514H269.859C267.646 172.514 265.852 170.72 265.852 168.506V15.2032C265.852 12.9897 267.646 11.1953 269.859 11.1953H357.032L393.103 49.2705V168.506C393.103 170.72 391.309 172.514 389.095 172.514Z" fill="#525151"/>
<circle cx="329.5" cy="102" r="35" fill="#434242"/>
<path d="M329.5 89V115M316.5 102H342.5" stroke="#6E6D6D" stroke-width="3" stroke-linecap="round" stroke-linejoin="round"/>
<path d="M357.031 11.1953L393.103 49.2636L361.017 49.0826C358.812 49.0701 357.031 47.2794 357.031 45.0747V30.0225V11.1953Z" fill="#434242"/>
<path d="M282.883 29.4375H343.002" stroke="#434242" stroke-width="5" stroke-linecap="round"/>
<path d="M282.883 41.4531H310.938" stroke="#434242" stroke-width="5" stroke-linecap="round"/>
<path d="M282.883 52.4531H310.938" stroke="#434242" stroke-width="5" stroke-linecap="round"/>
<circle cx="426.629" cy="151.675" r="1.60494" stroke="#D9D9D9" stroke-width="0.687831"/>
<circle cx="177.483" cy="115.162" r="1.77169" fill="#D9D9D9"/>
<circle cx="434.842" cy="45.8498" r="1.77169" fill="#D9D9D9"/>
<path d="M237.68 119.444C237.68 119.229 237.854 119.055 238.07 119.055V119.055C238.285 119.055 238.459 119.229 238.459 119.444V121.393C238.459 121.609 238.285 121.783 238.07 121.783V121.783C237.854 121.783 237.68 121.609 237.68 121.393V119.444ZM237.68 124.511C237.68 124.296 237.854 124.122 238.07 124.122V124.122C238.285 124.122 238.459 124.296 238.459 124.511V126.46C238.459 126.676 238.285 126.85 238.07 126.85V126.85C237.854 126.85 237.68 126.676 237.68 126.46V124.511ZM239.239 122.952C239.239 122.737 239.413 122.563 239.629 122.563H241.578C241.793 122.563 241.967 122.737 241.967 122.952V122.952C241.967 123.168 241.793 123.342 241.578 123.342H239.629C239.413 123.342 239.239 123.168 239.239 122.952V122.952ZM234.172 122.952C234.172 122.737 234.346 122.563 234.562 122.563H236.511C236.726 122.563 236.9 122.737 236.9 122.952V122.952C236.9 123.168 236.726 123.342 236.511 123.342H234.562C234.346 123.342 234.172 123.168 234.172 122.952V122.952Z" fill="#D9D9D9"/>
<path d="M240.069 31.6428C240.313 31.4259 240.686 31.4475 240.903 31.6911V31.6911C241.12 31.9346 241.098 32.3079 240.855 32.5247L238.65 34.488C238.406 34.7049 238.033 34.6832 237.816 34.4397V34.4397C237.599 34.1961 237.621 33.8229 237.865 33.606L240.069 31.6428ZM234.337 36.7473C234.58 36.5304 234.953 36.552 235.17 36.7956V36.7956C235.387 37.0391 235.366 37.4124 235.122 37.6292L232.917 39.5925C232.674 39.8094 232.3 39.7877 232.083 39.5442V39.5442C231.867 39.3006 231.888 38.9274 232.132 38.7105L234.337 36.7473ZM237.671 36.9406C237.915 36.7237 238.288 36.7454 238.505 36.9889L240.468 39.1938C240.685 39.4374 240.663 39.8106 240.42 40.0275V40.0275C240.176 40.2443 239.803 40.2227 239.586 39.9791L237.623 37.7742C237.406 37.5307 237.428 37.1574 237.671 36.9406V36.9406ZM232.567 31.2078C232.81 30.9909 233.184 31.0126 233.4 31.2561L235.364 33.461C235.58 33.7046 235.559 34.0778 235.315 34.2947V34.2947C235.072 34.5115 234.699 34.4899 234.482 34.2463L232.518 32.0414C232.302 31.7979 232.323 31.4246 232.567 31.2078V31.2078Z" fill="#D9D9D9"/>
</g>
</svg>
