<svg width="120" height="120" viewBox="0 0 120 120" fill="none" xmlns="http://www.w3.org/2000/svg">
<g clip-path="url(#clip0_3221_101327)">
<rect width="120" height="120" rx="24" fill="#121314"/>
<g opacity="0.3">
<path d="M63.956 61.5L142.295 216.076L63.3512 216.755L63.956 61.5Z" fill="#222425"/>
<path d="M63.6882 62.0659L23.7589 230.697L-36.9784 180.263L63.6882 62.0659Z" fill="#222425"/>
<path d="M63.1165 62.3264L-76.2208 165.36L-90.0624 87.636L63.1165 62.3264Z" fill="#222425"/>
<path d="M62.5127 62.157L-110.417 50.9254L-70.8247 -17.3758L62.5127 62.157Z" fill="#222425"/>
<path d="M62.1636 61.6364L-62.6754 -58.5551L11.6492 -85.1718L62.1636 61.6364Z" fill="#222425"/>
<path d="M62.2326 61.014L44.4515 -111.365L118.402 -83.725L62.2326 61.014Z" fill="#222425"/>
<path d="M62.6852 60.5837L160.361 -82.5604L199.006 -13.7191L62.6852 60.5837Z" fill="#222425"/>
<path d="M63.3068 60.5442L230.302 14.249L215.389 91.7744L63.3068 60.5442Z" fill="#222425"/>
<path d="M63.8095 60.9174L221.245 133.338L159.817 182.929L63.8095 60.9174Z" fill="#222425"/>
</g>
</g>
<rect x="0.5" y="0.5" width="119" height="119" rx="23.5" stroke="#2C2D2F"/>
<defs>
<clipPath id="clip0_3221_101327">
<rect width="120" height="120" rx="24" fill="white"/>
</clipPath>
</defs>
</svg>
