
<svg width="248" height="207" viewBox="0 0 248 207" fill="none" xmlns="http://www.w3.org/2000/svg">
<g filter="url(#filter0_d_3157_85245)">
<g clipPath="url(#clip0_3157_85245)">
<path d="M4 12C4 5.37258 9.37258 0 16 0H232C238.627 0 244 5.37258 244 12V187C244 193.627 238.627 199 232 199H16C9.37259 199 4 193.627 4 187V12Z" fill="#161718"/>
<g opacity="0.4">
<path d="M124.021 103L0.255058 40.646L0.255058 165.354L124.021 103Z" fill="#161718"/>
<path d="M124.021 103.043L0.535027 40.4597L-0.00699541 103.526L124.021 103.043Z" fill="#222425"/>
<path d="M124.023 103L247.79 40.646V165.354L124.023 103Z" fill="#161718"/>
<path d="M124.023 103.043L247.51 40.4597L248.052 103.526L124.023 103.043Z" fill="#222425"/>
<path d="M124.341 102.385L-28.8065 177.569L93.6186 270.204L124.341 102.385Z" fill="#161718"/>
<path d="M124.383 102.417L-28.7812 177.156L32.7278 224.534L124.383 102.417Z" fill="#222425"/>
<path d="M124.341 102.385L155.064 -65.4334L277.489 27.201L124.341 102.385Z" fill="#161718"/>
<path d="M124.383 102.416L154.673 -65.2972L216.988 -18.9831L124.383 102.416Z" fill="#222425"/>
<path d="M124.595 105L201.638 257.019L87.5 257.686L124.595 105Z" fill="#222425"/>
<path d="M123.909 102.908L69.5509 -61.8328L-40.8318 48.5499L123.909 102.908Z" fill="#161718"/>
<path d="M123.873 102.946L69.965 -61.7496L13.6635 -6.40762L123.873 102.946Z" fill="#222425"/>
<path d="M123.907 102.908L288.648 157.267L178.265 267.649L123.907 102.908Z" fill="#161718"/>
<path d="M123.871 102.947L288.567 156.854L233.225 213.156L123.871 102.947Z" fill="#222425"/>
</g>
<circle cx="194.5" cy="65.5" r="3.5" fill="#222425"/>
</g>
</g>
<defs>
<filter id="filter0_d_3157_85245" x="0" y="0" width="248" height="207" filterUnits="userSpaceOnUse" colorInterpolationFilters="sRGB">
<feFlood floodOpacity="0" result="BackgroundImageFix"/>
<feColorMatrix in="SourceAlpha" type="matrix" values="0 0 0 0 0 0 0 0 0 0 0 0 0 0 0 0 0 0 127 0" result="hardAlpha"/>
<feOffset dy="4"/>
<feGaussianBlur stdDeviation="2"/>
<feComposite in2="hardAlpha" operator="out"/>
<feColorMatrix type="matrix" values="0 0 0 0 0 0 0 0 0 0 0 0 0 0 0 0 0 0 0.25 0"/>
<feBlend mode="normal" in2="BackgroundImageFix" result="effect1_dropShadow_3157_85245"/>
<feBlend mode="normal" in="SourceGraphic" in2="effect1_dropShadow_3157_85245" result="shape"/>
</filter>
<clipPath id="clip0_3157_85245">
<path d="M4 12C4 5.37258 9.37258 0 16 0H232C238.627 0 244 5.37258 244 12V187C244 193.627 238.627 199 232 199H16C9.37259 199 4 193.627 4 187V12Z" fill="white"/>
</clipPath>
</defs>
</svg>
