<svg  width="240" height="199" viewBox="0 0 240 199" fill="none" xmlns="http://www.w3.org/2000/svg">
<g clip-path="url(#clip0_5440_15312)">
<path d="M0 12C0 5.37258 5.37258 0 12 0H228C234.627 0 240 5.37258 240 12V187C240 193.627 234.627 199 228 199H12C5.37259 199 0 193.627 0 187V12Z" fill="#161718"/>
<circle cx="190.5" cy="65.5" r="3.5" fill="#222425"/>
<circle cx="45.5" cy="125.5" r="1.5" fill="#222425"/>
<g opacity="0.4">
<path d="M121.908 91.0996L-1.85822 28.7458L-1.85822 153.453L121.908 91.0996Z" fill="#161718"/>
<path d="M121.908 91.1422L-1.57825 28.5593L-2.12028 91.6253L121.908 91.1422Z" fill="#222425"/>
<path d="M121.91 91.0996L245.677 28.7458V153.453L121.91 91.0996Z" fill="#161718"/>
<path d="M121.91 91.1422L245.397 28.5593L245.939 91.6253L121.91 91.1422Z" fill="#222425"/>
<path d="M122.228 90.4843L-37.3389 174.152L85.0861 266.786L122.228 90.4843Z" fill="#161718"/>
<path d="M122.27 90.5163L-37.2992 173.72L24.1817 221.135L122.27 90.5163Z" fill="#222425"/>
<path d="M122.228 90.4843L152.951 -77.334L275.376 15.3005L122.228 90.4843Z" fill="#161718"/>
<path d="M122.27 90.5163L152.56 -77.1972L214.874 -30.8831L122.27 90.5163Z" fill="#222425"/>
<path d="M122 91L199.524 245.118L85.3867 245.786L122 91Z" fill="#222425"/>
<path d="M121.796 91.0068L67.4377 -73.7341L-42.945 36.6486L121.796 91.0068Z" fill="#161718"/>
<path d="M121.759 91.0453L67.8517 -73.6506L11.5502 -18.3086L121.759 91.0453Z" fill="#222425"/>
<path d="M121.794 91.0068L286.535 145.365L176.152 255.748L121.794 91.0068Z" fill="#161718"/>
<path d="M121.757 91.0453L286.453 144.953L231.111 201.254L121.757 91.0453Z" fill="#222425"/>
</g>
</g>
<defs>
<clipPath id="clip0_5440_15312">
<path d="M0 12C0 5.37258 5.37258 0 12 0H228C234.627 0 240 5.37258 240 12V187C240 193.627 234.627 199 228 199H12C5.37259 199 0 193.627 0 187V12Z" fill="white"/>
</clipPath>
</defs>
</svg>
