<svg width="255" height="123" viewBox="0 0 255 123" fill="none" xmlns="http://www.w3.org/2000/svg">
<path d="M100.72 13.974L129.962 19.3848L97.9574 43.5838L100.72 13.974Z" fill="#FC792B"/>
<path d="M100.717 13.9691L129.959 19.3799L113.891 31.6497L100.717 13.9691Z" fill="#FFA672"/>
<path d="M75.581 60.9113L98.5223 41.9886L96.4876 82.0605L75.581 60.9113Z" fill="#FC792B"/>
<path d="M75.5782 60.9157L98.5195 41.993L97.5905 62.1885L75.5782 60.9157Z" fill="#FFA672"/>
<path d="M198.044 60.4817L175.103 41.5589L177.137 81.6309L198.044 60.4817Z" fill="#FC792B"/>
<path d="M198.047 60.486L175.106 41.5633L176.035 61.7589L198.047 60.486Z" fill="#FFA672"/>
<path d="M172.827 13.974L143.585 19.3848L175.589 43.5838L172.827 13.974Z" fill="#FC792B"/>
<path d="M172.83 13.9691L143.588 19.3799L159.655 31.6497L172.83 13.9691Z" fill="#FFA672"/>
<path d="M100.72 108.792L129.962 103.381L97.9574 79.1818L100.72 108.792Z" fill="#FC792B"/>
<path d="M100.717 108.796L129.959 103.386L113.891 91.1159L100.717 108.796Z" fill="#FFA672"/>
<path d="M172.827 108.792L143.585 103.381L175.589 79.1818L172.827 108.792Z" fill="#FC792B"/>
<path d="M172.83 108.796L143.588 103.386L159.655 91.1159L172.83 108.796Z" fill="#FFA672"/>
<circle cx="136.7" cy="61.2623" r="45.6061" fill="#FFEC57"/>
<circle cx="137.034" cy="60.9246" r="34.7151" fill="#FFDD51" stroke="#FEC20E" stroke-width="3.40344"/>
<path d="M151.965 78.1875H120.674L116.477 56.4365L122.582 58.7261L125.635 49.9493L131.181 55.6733L136.701 43.8438L141.959 55.6733L148.149 49.9493L150.439 58.7261L156.544 56.4365L151.965 78.1875Z" fill="url(#paint0_linear_2599_30908)"/>
<path d="M120.674 78.1875H151.965M120.674 78.1875L128.688 61.0156M120.674 78.1875L116.477 56.4365L122.582 58.7261M151.965 78.1875L144.333 61.0156M151.965 78.1875L156.544 56.4365L150.439 58.7261M144.333 61.0156L141.959 55.6733M144.333 61.0156L150.439 58.7261M128.688 61.0156L122.582 58.7261M128.688 61.0156L131.181 55.6733M122.582 58.7261L125.635 49.9493L131.181 55.6733M131.181 55.6733L136.701 43.8438L141.959 55.6733M141.959 55.6733L148.149 49.9493L150.439 58.7261" stroke="#FEC20E" stroke-width="0.763195"/>
<circle cx="114.95" cy="54.5281" r="3.05278" fill="#FFFCA1" stroke="#FEC20E" stroke-width="0.763195"/>
<circle cx="158.45" cy="54.5281" r="3.05278" fill="#FFFCA1" stroke="#FEC20E" stroke-width="0.763195"/>
<circle cx="136.704" cy="42.6964" r="4.16288" fill="#FFFCA1" stroke="#FEC20E" stroke-width="0.832576"/>
<path d="M188.633 81.6797H179.202C178.842 81.6797 178.544 81.9602 178.523 82.3196L177.58 98.0315C177.558 98.4012 177.835 98.7208 178.204 98.7507L188.66 99.5985C189.239 99.6454 189.607 98.9915 189.266 98.5208L183.304 90.2872C183.118 90.0302 183.134 89.6786 183.343 89.4398L186.559 85.7638L189.145 82.8086C189.53 82.3685 189.218 81.6797 188.633 81.6797Z" fill="#F97E43"/>
<path d="M85.7813 81.6797H95.2119C95.572 81.6797 95.8698 81.9602 95.8913 82.3196L96.834 98.0315C96.8562 98.4012 96.5787 98.7208 96.2096 98.7507L85.7545 99.5985C85.1751 99.6454 84.8072 98.9915 85.1481 98.5208L91.1104 90.2872C91.2965 90.0302 91.2803 89.6786 91.0713 89.4398L87.8549 85.7638L85.2691 82.8086C84.884 82.3685 85.1965 81.6797 85.7813 81.6797Z" fill="#E8692C"/>
<circle cx="137.034" cy="59.5574" r="34.7151" fill="#FFDD51" fill-opacity="0.76" stroke="#FEC20E" stroke-width="3.40344"/>
<path d="M94.5523 78.8056L96.3082 99.3834C96.3402 99.7594 96.6792 100.037 97.055 100.003C128.152 97.2058 145.917 97.0839 177.013 100C177.39 100.035 177.73 99.7578 177.762 99.3807L179.518 78.8045C179.551 78.42 179.251 78.0848 178.865 78.0665C146.488 76.5228 127.917 76.5577 95.2064 78.0675C94.8206 78.0853 94.5195 78.4207 94.5523 78.8056Z" fill="url(#paint1_linear_2599_30908)"/>
<path d="M117.438 90.5206C116.929 90.5206 116.459 90.4317 116.027 90.2538C115.602 90.0759 115.227 89.8281 114.903 89.5105C114.579 89.1928 114.328 88.8243 114.15 88.405C113.972 87.9794 113.883 87.522 113.883 87.0328C113.883 86.5372 113.972 86.0798 114.15 85.6605C114.328 85.2412 114.576 84.8759 114.893 84.5646C115.211 84.2469 115.583 84.0023 116.008 83.8308C116.44 83.6529 116.91 83.564 117.419 83.564C117.92 83.564 118.384 83.6529 118.81 83.8308C119.242 84.0023 119.617 84.2469 119.934 84.5646C120.258 84.8759 120.509 85.2444 120.687 85.67C120.865 86.0893 120.954 86.5468 120.954 87.0423C120.954 87.5315 120.865 87.9889 120.687 88.4146C120.509 88.8339 120.262 89.2023 119.944 89.52C119.626 89.8313 119.251 90.0759 118.819 90.2538C118.394 90.4317 117.933 90.5206 117.438 90.5206ZM117.419 89.1579C117.819 89.1579 118.168 89.0689 118.467 88.891C118.772 88.7132 119.007 88.4654 119.172 88.1477C119.337 87.8237 119.42 87.4521 119.42 87.0328C119.42 86.7151 119.372 86.4292 119.277 86.1751C119.182 85.9146 119.045 85.6923 118.867 85.508C118.689 85.3174 118.476 85.1745 118.229 85.0792C117.987 84.9775 117.717 84.9267 117.419 84.9267C117.018 84.9267 116.666 85.0157 116.361 85.1935C116.062 85.3651 115.83 85.6097 115.665 85.9273C115.5 86.2386 115.417 86.6071 115.417 87.0328C115.417 87.3504 115.465 87.6395 115.56 87.9C115.656 88.1604 115.789 88.386 115.961 88.5766C116.138 88.7608 116.351 88.9037 116.599 89.0054C116.847 89.107 117.12 89.1579 117.419 89.1579ZM123.829 90.5111C123.403 90.5111 123.025 90.4253 122.695 90.2538C122.371 90.0759 122.117 89.8345 121.932 89.5295C121.748 89.2182 121.656 88.8625 121.656 88.4622V85.7749H123.114V88.4431C123.114 88.602 123.139 88.7386 123.19 88.8529C123.247 88.9673 123.33 89.0562 123.438 89.1198C123.546 89.1833 123.676 89.215 123.829 89.215C124.045 89.215 124.216 89.1483 124.343 89.0149C124.47 88.8752 124.534 88.6846 124.534 88.4431V85.7749H125.992V88.4527C125.992 88.8593 125.9 89.2182 125.716 89.5295C125.531 89.8345 125.277 90.0759 124.953 90.2538C124.629 90.4253 124.254 90.5111 123.829 90.5111ZM127.565 90.4062V83.8594H129.023V90.4062H127.565ZM126.517 87.0137V85.7749H130.071V87.0137H126.517ZM134.758 90.5111C134.282 90.5111 133.85 90.4062 133.462 90.1966C133.081 89.9806 132.779 89.6884 132.557 89.3199C132.335 88.9514 132.224 88.5384 132.224 88.081C132.224 87.6236 132.335 87.2138 132.557 86.8517C132.779 86.4896 133.081 86.2037 133.462 85.994C133.844 85.778 134.276 85.67 134.758 85.67C135.241 85.67 135.673 85.7749 136.054 85.9845C136.436 86.1942 136.737 86.4832 136.96 86.8517C137.182 87.2138 137.293 87.6236 137.293 88.081C137.293 88.5384 137.182 88.9514 136.96 89.3199C136.737 89.6884 136.436 89.9806 136.054 90.1966C135.673 90.4062 135.241 90.5111 134.758 90.5111ZM134.758 89.1865C134.968 89.1865 135.152 89.142 135.311 89.053C135.47 88.9577 135.591 88.8275 135.673 88.6623C135.762 88.4908 135.807 88.297 135.807 88.081C135.807 87.865 135.762 87.6776 135.673 87.5188C135.584 87.3536 135.46 87.2265 135.302 87.1376C135.149 87.0423 134.968 86.9946 134.758 86.9946C134.555 86.9946 134.374 87.0423 134.215 87.1376C134.056 87.2265 133.932 87.3536 133.844 87.5188C133.755 87.684 133.71 87.8745 133.71 88.0906C133.71 88.3002 133.755 88.4908 133.844 88.6623C133.932 88.8275 134.056 88.9577 134.215 89.053C134.374 89.142 134.555 89.1865 134.758 89.1865ZM138.517 90.4062V85.3746C138.517 84.9998 138.6 84.6631 138.765 84.3645C138.936 84.0595 139.174 83.8213 139.479 83.6497C139.784 83.4719 140.146 83.3829 140.566 83.3829C140.883 83.3829 141.16 83.4369 141.395 83.5449C141.636 83.6466 141.846 83.7895 142.024 83.9738L141.109 84.8886C141.045 84.8251 140.972 84.7774 140.89 84.7457C140.814 84.7075 140.721 84.6885 140.613 84.6885C140.417 84.6885 140.261 84.7457 140.146 84.86C140.032 84.9744 139.975 85.13 139.975 85.327V90.4062H138.517ZM137.497 87.0137V85.7749H141.309V87.0137H137.497ZM144.863 90.4062V83.6783H146.35V90.4062H144.863ZM143.567 84.9458V83.6783H146.255V84.9458H143.567ZM150.161 90.5111C149.621 90.5111 149.132 90.365 148.694 90.0727C148.255 89.7805 147.909 89.3739 147.655 88.8529C147.407 88.3256 147.283 87.7189 147.283 87.0328C147.283 86.3403 147.407 85.7367 147.655 85.2221C147.903 84.7012 148.243 84.2978 148.675 84.0119C149.107 83.7196 149.596 83.5735 150.142 83.5735C150.695 83.5735 151.187 83.7196 151.619 84.0119C152.051 84.2978 152.391 84.7012 152.639 85.2221C152.893 85.7431 153.02 86.3498 153.02 87.0423C153.02 87.7348 152.893 88.3415 152.639 88.8625C152.391 89.3834 152.051 89.79 151.619 90.0822C151.194 90.3681 150.708 90.5111 150.161 90.5111ZM150.152 89.1865C150.431 89.1865 150.673 89.107 150.876 88.9482C151.079 88.783 151.235 88.5416 151.343 88.224C151.457 87.9 151.514 87.5061 151.514 87.0423C151.514 86.5722 151.457 86.1783 151.343 85.8606C151.235 85.543 151.079 85.3047 150.876 85.1459C150.673 84.9807 150.428 84.8981 150.142 84.8981C149.869 84.8981 149.628 84.9775 149.418 85.1364C149.215 85.2952 149.059 85.5334 148.951 85.8511C148.843 86.1687 148.789 86.5626 148.789 87.0328C148.789 87.5029 148.843 87.8968 148.951 88.2144C149.059 88.5321 149.215 88.7735 149.418 88.9387C149.628 89.1039 149.872 89.1865 150.152 89.1865ZM156.508 90.5111C155.968 90.5111 155.479 90.365 155.041 90.0727C154.602 89.7805 154.256 89.3739 154.002 88.8529C153.754 88.3256 153.63 87.7189 153.63 87.0328C153.63 86.3403 153.754 85.7367 154.002 85.2221C154.25 84.7012 154.589 84.2978 155.021 84.0119C155.454 83.7196 155.943 83.5735 156.489 83.5735C157.042 83.5735 157.534 83.7196 157.966 84.0119C158.398 84.2978 158.738 84.7012 158.986 85.2221C159.24 85.7431 159.367 86.3498 159.367 87.0423C159.367 87.7348 159.24 88.3415 158.986 88.8625C158.738 89.3834 158.398 89.79 157.966 90.0822C157.54 90.3681 157.054 90.5111 156.508 90.5111ZM156.499 89.1865C156.778 89.1865 157.02 89.107 157.223 88.9482C157.426 88.783 157.582 88.5416 157.69 88.224C157.804 87.9 157.861 87.5061 157.861 87.0423C157.861 86.5722 157.804 86.1783 157.69 85.8606C157.582 85.543 157.426 85.3047 157.223 85.1459C157.02 84.9807 156.775 84.8981 156.489 84.8981C156.216 84.8981 155.974 84.9775 155.765 85.1364C155.562 85.2952 155.406 85.5334 155.298 85.8511C155.19 86.1687 155.136 86.5626 155.136 87.0328C155.136 87.5029 155.19 87.8968 155.298 88.2144C155.406 88.5321 155.562 88.7735 155.765 88.9387C155.974 89.1039 156.219 89.1865 156.499 89.1865Z" fill="white"/>
<circle cx="8" cy="114" r="8" fill="#222425"/>
<circle cx="251.5" cy="9.5" r="3.5" fill="#222425"/>
<defs>
<linearGradient id="paint0_linear_2599_30908" x1="136.51" y1="43.8438" x2="135.938" y2="88.8723" gradientUnits="userSpaceOnUse">
<stop stop-color="#FFF77A"/>
<stop offset="1" stop-color="#FFA805"/>
</linearGradient>
<linearGradient id="paint1_linear_2599_30908" x1="94.4922" y1="88.4936" x2="179.578" y2="88.4936" gradientUnits="userSpaceOnUse">
<stop stop-color="#FC792B"/>
<stop offset="1" stop-color="#FFA672"/>
</linearGradient>
</defs>
</svg>
